<svg width="710" height="711" xmlns="http://www.w3.org/2000/svg" xmlns:xlink="http://www.w3.org/1999/xlink" xml:space="preserve" overflow="hidden"><defs><clipPath id="clip0"><rect x="4746" y="702" width="710" height="711"/></clipPath></defs><g clip-path="url(#clip0)" transform="translate(-4746 -702)"><path d="M11.0937 244.062C17.219 244.064 22.1858 239.1 22.1875 232.975 22.1875 232.973 22.1875 232.971 22.1875 232.969L22.1875 55.4687C22.2099 37.0973 37.0973 22.2099 55.4687 22.1875L454.844 22.1875C473.215 22.2099 488.102 37.0973 488.125 55.4687L488.125 232.969 377.187 232.969C355.161 233.006 335.241 246.065 326.422 266.25L88.75 266.25C82.6256 266.244 77.6623 261.281 77.6562 255.156L77.6562 77.6562C77.6623 71.5319 82.6256 66.5686 88.75 66.5625L421.562 66.5625C427.687 66.5686 432.65 71.5319 432.656 77.6562L432.656 188.594C432.656 194.721 437.623 199.687 443.75 199.687 449.877 199.687 454.844 194.721 454.844 188.594L454.844 77.6562C454.821 59.2848 439.934 44.3974 421.562 44.375L88.75 44.375C70.3785 44.3974 55.4911 59.2848 55.4687 77.6562L55.4687 255.156C55.4911 273.528 70.3785 288.415 88.75 288.437L321.719 288.437 321.719 321.719C321.719 327.846 326.686 332.812 332.812 332.812 338.939 332.812 343.906 327.846 343.906 321.719L343.906 288.437C343.929 270.066 358.816 255.179 377.187 255.156L499.219 255.156C505.344 255.158 510.311 250.194 510.312 244.069 510.312 244.067 510.312 244.064 510.312 244.062L510.312 55.4687C510.278 24.8486 485.464 0.0346948 454.844 0L55.4687 0C24.8486 0.0346948 0.0346948 24.8486 0 55.4687L0 232.969C-0.00168513 239.094 4.96242 244.061 11.0876 244.062 11.0897 244.062 11.0917 244.062 11.0937 244.062Z" fill="#FFDB70" transform="matrix(1 0 0 1.00141 4746 702)"/><path d="M311.623 147.436 233.302 100.398C222.767 94.1053 209.125 97.544 202.832 108.079 200.773 111.525 199.686 115.465 199.687 119.48L199.687 213.333C199.64 221.324 203.929 228.713 210.892 232.636 217.868 236.561 226.405 236.476 233.302 232.414L311.623 185.377C322.1 179.113 325.516 165.542 319.253 155.065 317.379 151.931 314.758 149.31 311.623 147.436ZM221.875 213.333 221.875 119.48 300.197 166.406Z" fill="#FFDB70" transform="matrix(1 0 0 1.00141 4746 702)"/><path d="M299.587 321.663C299.587 327.821 294.595 332.812 288.437 332.812 282.28 332.812 277.288 327.821 277.288 321.663 277.288 315.506 282.28 310.514 288.437 310.514 294.595 310.514 299.587 315.506 299.587 321.663Z" fill="#FFDB70" transform="matrix(1 0 0 1.00141 4746 702)"/><path d="M77.6562 310.625C71.5293 310.625 66.5625 315.592 66.5625 321.719 66.5625 327.846 71.5293 332.812 77.6562 332.812L210.781 332.812C216.908 332.812 221.875 327.846 221.875 321.719 221.875 315.592 216.908 310.625 210.781 310.625Z" fill="#FFDB70" transform="matrix(1 0 0 1.00141 4746 702)"/><path d="M654.531 232.969 543.594 232.969C537.467 232.969 532.5 237.936 532.5 244.062 532.5 250.189 537.467 255.156 543.594 255.156L654.531 255.156C672.889 255.21 687.759 270.079 687.812 288.437L687.812 465.937C687.759 484.296 672.889 499.165 654.531 499.219L410.469 499.219 410.469 488.125C410.457 457.495 385.63 432.667 355 432.656L343.906 432.656 343.906 366.094C343.888 359.974 338.932 355.018 332.812 355L55.4687 355C37.1103 354.946 22.2412 340.077 22.1875 321.719 22.1875 315.592 17.2207 310.625 11.0937 310.625 4.96684 310.625-1.23165e-15 315.592-1.23165e-15 321.719 0.0111662 352.349 24.8388 377.176 55.4687 377.187L321.719 377.187 321.719 432.656 55.4687 432.656C24.8388 432.667 0.0111738 457.495 0 488.125L0 654.531C0.0111738 685.161 24.8388 709.989 55.4687 710L355 710C385.63 709.989 410.457 685.161 410.469 654.531L410.469 565.781C410.469 559.654 405.502 554.687 399.375 554.687 393.248 554.687 388.281 559.654 388.281 565.781L388.281 605.608 351.783 568.998C347.378 564.783 340.435 564.783 336.03 568.998L260.592 644.658 162.856 546.811C158.496 542.484 151.463 542.484 147.103 546.811L25.4047 668.62C23.3237 664.213 22.2259 659.405 22.1875 654.531L22.1875 488.125C22.2412 469.766 37.1103 454.897 55.4687 454.844L355 454.844C373.358 454.897 388.227 469.766 388.281 488.125L388.281 510.312C388.299 516.432 393.255 521.388 399.375 521.406L654.531 521.406C685.161 521.395 709.989 496.567 710 465.937L710 288.437C709.989 257.807 685.161 232.98 654.531 232.969ZM343.906 592.517 388.281 636.892 388.281 654.531C388.227 672.889 373.358 687.759 355 687.812L303.747 687.812 276.234 660.3ZM154.98 570.33 272.462 687.812 55.4687 687.812C50.4623 687.779 45.5297 686.602 41.0469 684.373Z" fill="#FFDB70" transform="matrix(1 0 0 1.00141 4746 702)"/><path d="M585.195 297.756C576.551 291.444 565.371 289.747 555.242 293.208L453.069 327.266 421.562 327.266C403.204 327.319 388.335 342.188 388.281 360.547L388.281 371.641C388.33 387.266 399.206 400.769 414.462 404.145L419.233 442.419C421.402 459.028 435.542 471.46 452.292 471.484L465.937 471.484C472.057 471.466 477.013 466.51 477.031 460.391L477.031 412.909 555.242 438.98C565.386 442.255 576.48 440.57 585.195 434.431 593.951 428.256 599.13 418.187 599.062 407.473L599.062 324.714C599.13 314 593.951 303.931 585.195 297.756ZM421.562 382.734C415.443 382.716 410.487 377.76 410.469 371.641L410.469 360.547C410.487 354.427 415.443 349.471 421.562 349.453L443.75 349.453 443.75 382.734ZM454.844 449.297C448.409 449.297 442.197 446.856 441.198 439.645L436.872 404.922 453.069 404.922 454.844 405.476ZM576.875 407.473C576.891 411.052 575.149 414.41 572.216 416.459 569.338 418.579 565.591 419.12 562.231 417.901L465.937 385.841 465.937 346.347 562.231 314.286C565.591 313.067 569.338 313.608 572.216 315.728 575.15 317.777 576.891 321.135 576.875 324.714Z" fill="#FFDB70" transform="matrix(1 0 0 1.00141 4746 702)"/><path d="M643.437 388.281 643.437 343.906C643.437 337.779 638.47 332.812 632.344 332.812 626.217 332.812 621.25 337.779 621.25 343.906L621.25 388.281C621.25 394.408 626.217 399.375 632.344 399.375 638.47 399.375 643.437 394.408 643.437 388.281Z" fill="#FFDB70" transform="matrix(1 0 0 1.00141 4746 702)"/><path d="M277.344 477.031C258.963 477.031 244.062 491.932 244.062 510.312 244.062 528.693 258.963 543.594 277.344 543.594 295.724 543.594 310.625 528.693 310.625 510.312 310.571 491.954 295.702 477.085 277.344 477.031ZM277.344 521.406C271.217 521.406 266.25 516.439 266.25 510.312 266.25 504.185 271.217 499.219 277.344 499.219 283.471 499.219 288.437 504.185 288.437 510.312 288.419 516.432 283.463 521.388 277.344 521.406Z" fill="#FFDB70" transform="matrix(1 0 0 1.00141 4746 702)"/><path d="M22.2984 277.399C22.2984 283.557 17.3068 288.548 11.1492 288.548 4.99167 288.548-5.28991e-08 283.557-5.28991e-08 277.399-5.28991e-08 271.242 4.99167 266.25 11.1492 266.25 17.3068 266.25 22.2984 271.242 22.2984 277.399Z" fill="#FFDB70" transform="matrix(1 0 0 1.00141 4746 702)"/></g></svg>