<svg width="664" height="665" xmlns="http://www.w3.org/2000/svg" xmlns:xlink="http://www.w3.org/1999/xlink" xml:space="preserve" overflow="hidden"><g transform="translate(-2557 -691)"><path d="M94.8465 118.558C68.6935 118.558 47.4233 97.288 47.4233 71.1349 47.4233 44.9818 68.6935 23.7116 94.8465 23.7116 121 23.7116 142.27 44.9818 142.27 71.1349 142.27 97.288 121 118.558 94.8465 118.558ZM94.8465 47.4233C81.7762 47.4233 71.1349 58.0645 71.1349 71.1349 71.1349 84.2053 81.7762 94.8465 94.8465 94.8465 107.917 94.8465 118.558 84.2053 118.558 71.1349 118.558 58.0645 107.917 47.4233 94.8465 47.4233Z" fill="#FFDB70" transform="matrix(1 0 0 1.00151 2533.33 667.29)"/><path d="M616.527 118.558C590.374 118.558 569.104 97.288 569.104 71.1349 569.104 44.9818 590.374 23.7116 616.527 23.7116 642.68 23.7116 663.951 44.9818 663.951 71.1349 663.951 97.288 642.68 118.558 616.527 118.558ZM616.527 47.4233C603.457 47.4233 592.816 58.0645 592.816 71.1349 592.816 84.2053 603.457 94.8465 616.527 94.8465 629.598 94.8465 640.239 84.2053 640.239 71.1349 640.239 58.0645 629.598 47.4233 616.527 47.4233Z" fill="#FFDB70" transform="matrix(1 0 0 1.00151 2533.33 667.29)"/><path d="M71.1349 355.687C44.9818 355.687 23.7116 334.417 23.7116 308.264 23.7116 282.111 44.9818 260.84 71.1349 260.84 97.288 260.84 118.558 282.111 118.558 308.264 118.558 334.417 97.288 355.687 71.1349 355.687ZM71.1349 284.552C58.0645 284.552 47.4233 295.193 47.4233 308.264 47.4233 321.334 58.0645 331.975 71.1349 331.975 84.2053 331.975 94.8465 321.334 94.8465 308.264 94.8465 295.193 84.2053 284.552 71.1349 284.552Z" fill="#FFDB70" transform="matrix(1 0 0 1.00151 2533.33 667.29)"/><path d="M640.239 355.687C614.086 355.687 592.816 334.417 592.816 308.264 592.816 282.111 614.086 260.84 640.239 260.84 666.392 260.84 687.662 282.111 687.662 308.264 687.662 334.417 666.392 355.687 640.239 355.687ZM640.239 284.552C627.168 284.552 616.527 295.193 616.527 308.264 616.527 321.334 627.168 331.975 640.239 331.975 653.309 331.975 663.951 321.334 663.951 308.264 663.951 295.193 653.309 284.552 640.239 284.552Z" fill="#FFDB70" transform="matrix(1 0 0 1.00151 2533.33 667.29)"/><path d="M106.709 296.402 604.678 296.402 604.678 320.113 106.709 320.113Z" fill="#FFDB70" transform="matrix(1 0 0 1.00151 2533.33 667.29)"/><path d="M302.838 591.496C262.308 570.633 237.129 530.25 237.129 486.107 237.129 441.964 262.11 413.788 288.559 384.306 308.917 361.63 329.965 338.178 344.799 303.59L366.587 312.925C350.224 351.112 326.833 377.167 306.204 400.151 280.865 428.388 260.84 450.706 260.84 486.107 260.84 521.508 281.593 553.888 313.701 570.423L302.838 591.496Z" fill="#FFDB70" transform="matrix(1 0 0 1.00151 2533.33 667.29)"/><path d="M408.548 591.496 397.685 570.423C429.793 553.888 450.546 520.781 450.546 486.107 450.546 451.434 430.521 428.388 405.182 400.151 384.553 377.167 361.162 351.112 344.799 312.925L366.587 303.59C381.421 338.178 402.469 361.63 422.827 384.306 449.276 413.788 474.257 441.618 474.257 486.107 474.257 530.596 449.078 570.633 408.548 591.496Z" fill="#FFDB70" transform="matrix(1 0 0 1.00151 2533.33 667.29)"/><path d="M355.687 521.681C329.534 521.681 308.264 500.41 308.264 474.257 308.264 448.104 329.534 426.834 355.687 426.834 381.84 426.834 403.11 448.104 403.11 474.257 403.11 500.41 381.84 521.681 355.687 521.681ZM355.687 450.546C342.616 450.546 331.975 461.187 331.975 474.257 331.975 487.328 342.616 497.969 355.687 497.969 368.757 497.969 379.398 487.328 379.398 474.257 379.398 461.187 368.757 450.546 355.687 450.546Z" fill="#FFDB70" transform="matrix(1 0 0 1.00151 2533.33 667.29)"/><path d="M343.837 308.264 367.549 308.264 367.549 438.684 343.837 438.684Z" fill="#FFDB70" transform="matrix(1 0 0 1.00151 2533.33 667.29)"/><path d="M414.972 687.662 296.414 687.662 296.414 569.104 414.972 569.104 414.972 687.662ZM320.126 663.951 391.26 663.951 391.26 592.816 320.126 592.816 320.126 663.951Z" fill="#FFDB70" transform="matrix(1 0 0 1.00151 2533.33 667.29)"/><path d="M71.1349 391.26 118.558 391.26 118.558 414.972 71.1349 414.972Z" fill="#FFDB70" transform="matrix(1 0 0 1.00151 2533.33 667.29)"/><path d="M104.21 498.43 156.642 498.43 156.642 522.16 104.21 522.16Z" fill="#FFDB70" transform="matrix(0.706575 -0.70764 0.706575 0.70764 2210.93 909.159)"/><path d="M592.816 391.26 640.239 391.26 640.239 414.972 592.816 414.972Z" fill="#FFDB70" transform="matrix(1 0 0 1.00151 2533.33 667.29)"/><path d="M569.372 483.524 593.101 483.524 593.101 536.548 569.372 536.548Z" fill="#FFDB70" transform="matrix(0.706575 -0.70764 0.706575 0.70764 2343.05 1228.09)"/><path d="M355.687 320.126C205.316 320.126 82.9969 224.379 82.9969 106.709L106.709 106.709C106.709 211.309 218.411 296.414 355.687 296.414 492.963 296.414 604.665 211.309 604.665 106.709L628.377 106.709C628.377 224.379 506.046 320.126 355.687 320.126Z" fill="#FFDB70" transform="matrix(1 0 0 1.00151 2533.33 667.29)"/></g></svg>