<svg width="673" height="673" xmlns="http://www.w3.org/2000/svg" xmlns:xlink="http://www.w3.org/1999/xlink" xml:space="preserve" overflow="hidden"><defs><clipPath id="clip0"><rect x="1524" y="683" width="673" height="673"/></clipPath></defs><g clip-path="url(#clip0)" transform="translate(-1524 -683)"><path d="M1683.9 900.174C1677.31 900.174 1671.96 894.831 1671.96 888.241L1671.96 840.511C1671.96 821.016 1687.56 805.103 1707.05 804.713 1693.4 790.793 1693.4 768.516 1707.05 754.596L1741.17 721.184C1748.04 714.574 1757.18 710.857 1766.71 710.803 1775.86 710.661 1784.69 714.134 1791.29 720.468 1791.68 700.978 1807.59 685.383 1827.09 685.387L1874.82 685.387C1894.31 685.383 1910.23 700.978 1910.62 720.468 1917.24 714.144 1926.04 710.6 1935.2 710.564L1935.2 710.564C1944.79 710.541 1953.99 714.367 1960.73 721.184L1994.15 754.596C2008.15 768.551 2008.19 791.217 1994.23 805.221 1994.2 805.251 1994.17 805.28 1994.15 805.309L1974.58 825.117C1969.06 828.728 1961.67 827.185 1958.06 821.672 1955.35 817.544 1955.47 812.18 1958.35 808.173L1978.04 788.365C1982.66 783.711 1982.66 776.194 1978.04 771.54L1943.79 737.89C1941.54 735.656 1938.49 734.411 1935.32 734.43 1932.2 734.411 1929.21 735.61 1926.96 737.771L1907.16 757.579C1903.72 760.965 1898.59 761.953 1894.15 760.085 1889.69 758.254 1886.78 753.924 1886.75 749.107L1886.75 721.184C1886.75 714.594 1881.41 709.252 1874.82 709.252L1827.09 709.252C1820.5 709.252 1815.16 714.594 1815.16 721.184L1815.16 749.107C1815.13 753.924 1812.21 758.254 1807.76 760.085 1803.31 761.953 1798.18 760.965 1794.75 757.579L1774.94 737.89C1772.72 735.686 1769.72 734.443 1766.59 734.43L1766.59 734.43C1763.42 734.411 1760.37 735.656 1758.12 737.89L1724.47 771.54C1722.23 773.792 1720.99 776.84 1721.01 780.012 1720.99 783.126 1722.19 786.123 1724.35 788.365L1744.16 808.173C1747.54 811.605 1748.53 816.736 1746.66 821.18 1744.83 825.636 1740.5 828.554 1735.68 828.578L1707.76 828.578C1701.17 828.578 1695.83 833.92 1695.83 840.511L1695.83 888.241C1695.83 894.831 1690.49 900.174 1683.9 900.174Z" fill="#FFDB70"/><path d="M1809.67 900.174C1805.45 900.173 1801.55 897.951 1799.4 894.327 1782.86 865.828 1792.56 829.317 1821.05 812.775 1830.14 807.503 1840.45 804.722 1850.95 804.713 1878.3 804.707 1902.15 823.296 1908.83 849.818 1910.44 856.211 1906.57 862.702 1900.18 864.316 1893.78 865.931 1887.29 862.057 1885.68 855.665 1880.91 836.478 1861.49 824.791 1842.3 829.56 1823.11 834.329 1811.43 853.75 1816.2 872.936 1817.02 876.257 1818.32 879.442 1820.05 882.394 1823.38 888.08 1821.47 895.39 1815.79 898.722 1815.77 898.729 1815.76 898.735 1815.75 898.742 1813.89 899.751 1811.79 900.246 1809.67 900.174Z" fill="#FFDB70"/><path d="M2062.28 1138.83 2021.47 1138.83C2003.59 1138.83 1989.08 1124.37 1989.01 1106.49L1989.01 1082.62C1989.01 1076.03 1994.36 1070.69 2000.95 1070.69 2007.54 1070.69 2012.88 1076.03 2012.88 1082.62L2012.88 1106.49C2012.88 1111.17 2016.67 1114.96 2021.35 1114.96 2021.39 1114.96 2021.43 1114.96 2021.47 1114.96L2062.28 1114.96C2066.96 1115.03 2070.8 1111.29 2070.87 1106.61 2070.87 1106.57 2070.87 1106.53 2070.87 1106.49L2070.87 1082.62C2070.9 1077.81 2073.81 1073.48 2078.27 1071.65 2082.71 1069.78 2087.85 1070.77 2091.28 1074.15L2108.22 1091.1C2111.55 1094.31 2116.82 1094.31 2120.15 1091.1L2149.27 1061.98C2152.42 1058.63 2152.42 1053.4 2149.27 1050.05L2132.32 1033.22C2128.94 1029.79 2127.95 1024.66 2129.82 1020.22 2131.65 1015.76 2135.98 1012.84 2140.8 1012.82L2164.66 1012.82C2169.34 1012.82 2173.13 1009.03 2173.14 1004.35 2173.14 1004.31 2173.13 1004.27 2173.13 1004.23L2173.13 963.297C2173.2 958.619 2169.46 954.772 2164.78 954.707 2164.74 954.706 2164.7 954.706 2164.66 954.706L2140.8 954.706C2135.98 954.682 2131.65 951.763 2129.82 947.307 2127.95 942.864 2128.94 937.732 2132.32 934.301L2149.27 917.357C2152.48 914.028 2152.48 908.753 2149.27 905.424L2120.15 876.308C2116.8 873.156 2111.57 873.156 2108.22 876.308L2091.4 893.253C2087.96 896.639 2082.83 897.627 2078.39 895.759 2073.93 893.928 2071.02 889.598 2070.99 884.781L2070.99 860.915C2070.99 856.236 2067.2 852.443 2062.52 852.442 2062.48 852.442 2062.44 852.443 2062.4 852.443L2021.47 852.443C2016.79 852.377 2012.95 856.117 2012.88 860.795 2012.88 860.835 2012.88 860.875 2012.88 860.915L2012.88 884.781C2012.86 889.598 2009.94 893.928 2005.48 895.759 2001.04 897.627 1995.91 896.639 1992.47 893.253L1975.53 876.308C1972.2 873.096 1966.93 873.096 1963.6 876.308L1934.48 905.424C1931.33 908.777 1931.33 914.004 1934.48 917.357L1951.43 934.182C1956.14 938.861 1956.16 946.474 1951.49 951.186 1946.81 955.898 1939.19 955.924 1934.48 951.245L1917.54 934.301C1904.98 921.608 1904.98 901.173 1917.54 888.48L1946.41 859.483C1957.93 848.046 1976.13 846.874 1989.01 856.739 1991.18 840.509 2005.1 828.434 2021.47 828.578L2062.28 828.578C2078.56 828.554 2092.34 840.599 2094.5 856.739 2107.42 846.979 2125.54 848.146 2137.1 859.483L2166.09 888.241C2177.48 899.78 2178.65 917.936 2168.84 930.841 2185.07 933.007 2197.14 946.924 2197 963.297L2197 1004.11C2197.02 1020.39 2184.98 1034.17 2168.84 1036.32 2178.74 1049.29 2177.57 1067.57 2166.09 1079.16L2137.34 1107.92C2125.8 1119.31 2107.64 1120.48 2094.74 1110.67 2092.57 1126.9 2078.65 1138.97 2062.28 1138.83Z" fill="#FFDB70"/><path d="M2041.88 1036.56C2012.68 1036.56 1989.01 1012.9 1989.01 983.702 1989.01 954.507 2012.68 930.841 2041.88 930.841 2071.07 930.841 2094.74 954.507 2094.74 983.702 2094.67 1012.87 2071.04 1036.5 2041.88 1036.56ZM2041.88 954.706C2025.86 954.706 2012.88 967.688 2012.88 983.702 2012.88 999.716 2025.86 1012.7 2041.88 1012.7 2057.89 1012.7 2070.87 999.716 2070.87 983.702 2070.87 967.688 2057.89 954.706 2041.88 954.706Z" fill="#FFDB70"/><path d="M1683.9 956.615C1677.31 957.571 1671.19 953.003 1670.23 946.413 1669.28 939.822 1673.85 933.705 1680.44 932.75 1708.85 924.292 1738.68 921.654 1768.14 924.994 1774.73 925.751 1779.46 931.708 1778.7 938.298 1777.94 944.889 1771.99 949.617 1765.4 948.859 1739.18 945.835 1712.63 948.19 1687.36 955.78 1686.26 956.245 1685.09 956.527 1683.9 956.615Z" fill="#FFDB70"/><path d="M1937.47 1210.42C1936.47 1210.55 1935.47 1210.55 1934.48 1210.42 1928.19 1208.48 1924.67 1201.8 1926.61 1195.51 1932.03 1177.11 1934.69 1158.01 1934.48 1138.83 1934.46 1131.41 1934.03 1124 1933.17 1116.63 1932.21 1110.11 1936.71 1104.05 1943.23 1103.08 1943.38 1103.06 1943.52 1103.04 1943.67 1103.03 1950.22 1102.26 1956.14 1106.95 1956.91 1113.49 1956.91 1113.5 1956.91 1113.52 1956.92 1113.53 1960.33 1143.16 1957.61 1173.18 1948.92 1201.71 1947.48 1206.85 1942.8 1210.41 1937.47 1210.42Z" fill="#FFDB70"/><path d="M1743.56 1353.61C1713.16 1353.7 1683.09 1347.27 1655.38 1334.76 1649.35 1332.06 1646.65 1324.98 1649.35 1318.95 1652.05 1312.92 1659.13 1310.22 1665.16 1312.92 1689.78 1324.1 1716.52 1329.84 1743.56 1329.75 1762.39 1329.76 1781.12 1327.03 1799.17 1321.63 1805.49 1319.79 1812.12 1323.42 1813.96 1329.75 1815.9 1336.04 1812.38 1342.72 1806.09 1344.66 1785.8 1350.69 1764.73 1353.71 1743.56 1353.61Z" fill="#FFDB70"/><path d="M1553.95 1223.19C1549.03 1223.18 1544.62 1220.14 1542.85 1215.55 1525.83 1170.74 1524.2 1121.55 1538.2 1075.7 1540.15 1069.65 1546.5 1066.19 1552.64 1067.83 1559 1069.53 1562.78 1076.08 1561.08 1082.44 1561.05 1082.54 1561.02 1082.64 1560.99 1082.74 1555.45 1100.92 1552.63 1119.82 1552.64 1138.83 1552.38 1162.08 1556.43 1185.18 1564.57 1206.96 1566.98 1212.96 1564.17 1219.78 1558.25 1222.35 1556.89 1222.92 1555.42 1223.2 1553.95 1223.19Z" fill="#FFDB70"/><path d="M1600.37 1055.3C1567.42 1055.3 1540.71 1028.59 1540.71 995.635 1540.71 962.684 1567.42 935.972 1600.37 935.972 1633.32 935.972 1660.03 962.684 1660.03 995.635 1660.03 1028.59 1633.32 1055.3 1600.37 1055.3ZM1600.37 959.837C1580.6 959.837 1564.57 975.864 1564.57 995.635 1564.57 1015.41 1580.6 1031.43 1600.37 1031.43 1620.14 1031.43 1636.17 1015.41 1636.17 995.635 1636.17 975.864 1620.14 959.837 1600.37 959.837Z" fill="#FFDB70"/><path d="M1886.75 1341.68C1853.8 1341.68 1827.09 1314.97 1827.09 1282.02 1827.09 1249.07 1853.8 1222.35 1886.75 1222.35 1919.7 1222.35 1946.41 1249.07 1946.41 1282.02 1946.41 1314.97 1919.7 1341.68 1886.75 1341.68ZM1886.75 1246.22C1866.98 1246.22 1850.95 1262.25 1850.95 1282.02 1850.95 1301.79 1866.98 1317.82 1886.75 1317.82 1906.52 1317.82 1922.55 1301.79 1922.55 1282.02 1922.55 1262.25 1906.52 1246.22 1886.75 1246.22Z" fill="#FFDB70"/><path d="M1741.05 1262.33C1737.87 1262.32 1734.81 1261.03 1732.58 1258.75L1614.57 1140.62C1609.94 1135.96 1609.94 1128.45 1614.57 1123.79L1783.3 955.064C1787.95 950.437 1795.47 950.437 1800.12 955.064L1918.25 1073.2C1920.46 1075.42 1921.7 1078.42 1921.71 1081.55 1921.73 1084.72 1920.49 1087.77 1918.25 1090.02L1749.53 1258.75C1747.29 1261.03 1744.24 1262.32 1741.05 1262.33ZM1639.87 1132.26 1741.05 1233.45 1892.96 1081.55 1791.29 980.361Z" fill="#FFDB70"/><path d="M1561.83 1323.42C1555.24 1323.4 1549.91 1318.03 1549.94 1311.44 1549.95 1310.12 1550.17 1308.8 1550.61 1307.55L1611.7 1128.56C1613.87 1122.34 1620.67 1119.05 1626.9 1121.22 1628.59 1121.8 1630.12 1122.77 1631.39 1124.03L1749.53 1242.16C1752.44 1245.06 1753.66 1249.25 1752.75 1253.26 1751.82 1257.27 1748.89 1260.52 1744.99 1261.85L1566 1322.95C1564.65 1323.35 1563.24 1323.51 1561.83 1323.42ZM1628.05 1154.22 1581.04 1292.28 1719.69 1245.27Z" fill="#FFDB70"/><path d="M1561.83 1323.42C1555.24 1323.4 1549.91 1318.03 1549.94 1311.44 1549.95 1310.12 1550.17 1308.8 1550.61 1307.55L1577.1 1229.51C1578.93 1224.11 1584.33 1220.76 1589.99 1221.52 1605.68 1223.51 1620.25 1230.69 1631.39 1241.92 1642.54 1253.13 1649.7 1267.67 1651.8 1283.33 1652.5 1288.94 1649.16 1294.27 1643.8 1296.1L1565.76 1322.71C1564.5 1323.17 1563.17 1323.41 1561.83 1323.42ZM1596.31 1247.41 1581.04 1292.28 1625.9 1277.01C1621.12 1263.11 1610.21 1252.2 1596.31 1247.41Z" fill="#FFDB70"/><path d="M1909.78 1098.49 1774.82 963.417 1817.06 921.294C1831.25 907.839 1853.48 907.839 1867.66 921.294L1952.02 1005.66C1965.98 1019.63 1965.98 1042.28 1952.02 1056.25ZM1808.59 963.417 1909.78 1064.72 1935.2 1039.43C1939.88 1034.79 1939.91 1027.23 1935.27 1022.55 1935.24 1022.53 1935.22 1022.51 1935.2 1022.48L1850.95 938.119C1846.3 933.493 1838.78 933.493 1834.13 938.119Z" fill="#FFDB70"/><path d="M1741.05 1262.33 1741.05 1262.33C1737.87 1262.32 1734.81 1261.03 1732.58 1258.75L1698.93 1224.98C1694.31 1220.33 1694.31 1212.81 1698.93 1208.15L1867.66 1039.43C1872.31 1034.8 1879.83 1034.8 1884.48 1039.43L1918.25 1073.2C1920.46 1075.42 1921.7 1078.42 1921.71 1081.55 1921.73 1084.72 1920.49 1087.77 1918.25 1090.02L1749.53 1258.75C1747.29 1261.03 1744.24 1262.32 1741.05 1262.33ZM1724.23 1216.63 1741.05 1233.45 1892.96 1081.55 1876.13 1064.72Z" fill="#FFDB70"/><path d="M1656.69 1177.97C1653.49 1178.05 1650.4 1176.84 1648.1 1174.62L1614.45 1140.85C1609.82 1136.2 1609.82 1128.68 1614.45 1124.03L1783.3 955.064C1787.95 950.437 1795.47 950.437 1800.12 955.064L1833.89 988.833C1836.09 991.056 1837.34 994.055 1837.35 997.186 1837.37 1000.36 1836.12 1003.41 1833.89 1005.66L1665.16 1174.62C1662.89 1176.81 1659.85 1178.02 1656.69 1177.97ZM1639.87 1132.26 1656.69 1149.09 1808.59 997.186 1791.29 980.361Z" fill="#FFDB70"/></g></svg>