<svg width="853" height="634" xmlns="http://www.w3.org/2000/svg" xmlns:xlink="http://www.w3.org/1999/xlink" xml:space="preserve" overflow="hidden"><defs><clipPath id="clip0"><rect x="3532" y="702" width="853" height="634"/></clipPath></defs><g clip-path="url(#clip0)" transform="translate(-3532 -702)"><path d="M755.159 742.914 96.9918 742.914C43.4514 742.857 0.0610571 699.471-2.60056e-07 645.93L0 206.221C0.0610574 152.68 43.4514 109.294 96.9918 109.237L755.159 109.237C808.699 109.294 852.09 152.68 852.151 206.221L852.151 645.93C852.09 699.471 808.699 742.857 755.159 742.914ZM96.9918 136.949C58.7504 136.991 27.7589 167.979 27.7119 206.221L27.7119 645.93C27.7542 684.175 58.7471 715.168 96.9918 715.21L755.159 715.21C793.404 715.168 824.397 684.175 824.439 645.93L824.439 206.221C824.397 167.976 793.404 136.983 755.159 136.941Z" fill="#FFDB70" transform="matrix(1.001 0 0 1 3532 592.925)"/><path d="M406.45-123.553 434.162-123.553 434.162 608.052 406.45 608.052Z" fill="#FFDB70" transform="matrix(0.00244589 -0.999997 1.00099 0.00244346 3709.17 1254.87)"/><path d="M539.292 585.325 519.309 566.118 602.454 479.65 519.309 393.182 539.292 373.975 640.903 479.65 539.292 585.325Z" fill="#FFDB70" transform="matrix(1.001 0 0 1 3532 592.925)"/><path d="M308.99 585.325 207.388 479.65 308.99 373.975 328.973 393.182 245.828 479.65 328.973 566.118 308.99 585.325Z" fill="#FFDB70" transform="matrix(1.001 0 0 1 3532 592.925)"/><path d="M315.069 465.913 537.878 465.913 537.878 493.632 315.069 493.632Z" fill="#FFDB70" transform="matrix(0.506258 -0.862382 0.863241 0.505754 3328.72 1197.7)"/><path d="M671.785 189.595C671.785 197.756 665.169 204.371 657.008 204.371 648.848 204.371 642.232 197.756 642.232 189.595 642.232 181.434 648.848 174.819 657.008 174.819 665.169 174.819 671.785 181.434 671.785 189.595Z" fill="#FFDB70" transform="matrix(1.001 0 0 1 3532 592.925)"/><path d="M729.058 189.595C729.058 197.756 722.442 204.371 714.281 204.371 706.121 204.371 699.505 197.756 699.505 189.595 699.505 181.434 706.121 174.819 714.281 174.819 722.442 174.819 729.058 181.434 729.058 189.595Z" fill="#FFDB70" transform="matrix(1.001 0 0 1 3532 592.925)"/><path d="M783.101 189.595C783.101 197.756 776.485 204.371 768.325 204.371 760.164 204.371 753.548 197.756 753.548 189.595 753.548 181.434 760.164 174.819 768.325 174.819 776.485 174.819 783.101 181.434 783.101 189.595Z" fill="#FFDB70" transform="matrix(1.001 0 0 1 3532 592.925)"/></g></svg>