<?xml version="1.0" encoding="UTF-8"?>
<svg id="_Шар_2" data-name="Шар 2" xmlns="http://www.w3.org/2000/svg" width="297mm" height="210mm" viewBox="0 0 841.89 595.28">
  <defs>
    <style>
      .cls-1 {
        fill: #1e607c;
      }

      .cls-2 {
        fill: #2f7d95;
      }

      .cls-3 {
        fill: #eaa92c;
      }

      .cls-4 {
        fill: #f7e8c9;
      }

      .cls-5 {
        fill: #1c627f;
        stroke: #0d3049;
      }

      .cls-5, .cls-6 {
        stroke-miterlimit: 10;
        stroke-width: .5px;
      }

      .cls-6 {
        stroke: #892012;
      }

      .cls-6, .cls-7 {
        fill: #bc2a23;
      }
    </style>
  </defs>
  <path class="cls-7" d="M422.55,40.53c-78.47,0-142.08,62.99-142.08,140.68s63.61,140.68,142.08,140.68c33.95,0,65.14-11.8,89.58-31.48,1.36-1.09,2.71-2.21,4.03-3.36,29.72-25.79,48.48-63.64,48.48-105.84,0-77.69-63.62-140.68-142.09-140.68ZM508.18,284.43c-1.52,1.21-3.07,2.4-4.65,3.54-22.39,16.35-50.11,26.01-80.12,26.01-18.43,0-36-3.65-52-10.24-2.96-1.22-16.12-6.89-31.1-18.57-1.7-1.32-3.42-2.72-5.15-4.2-6.36-5.43-12.87-11.93-18.93-19.62,13.81-.14,27.63-.29,41.44-.43,7.03.09,14.07.18,21.1.27.77.01,1.9.07,3.25.32,3.56.64,5.95,2.08,6.9,2.58,4.41,2.37,9.72,1.96,14.54,1.6,6.17-.47,6.79-2.06,14.3-2.55,3.39-.23,6.05-.09,7.66,0,6.02.32,9.78,1.3,12.93,1.87,4.56.81,9.08.63,18.13.25,19.93-.82,19.69-3.01,31.24-2.38,4.38.24,12.88,1.01,18.12,1.53,3.82.38,6.44.67,7.32.77,3.35.36,7.86.68,13.98.79-5.69,6.75-12.04,12.93-18.96,18.46Z"/>
  <path class="cls-3" d="M558.16,180.46l-269.5.23c.29-73.08,60.51-132.24,134.75-132.24s134.34,59.04,134.75,132.01Z"/>
  <g id="_Хвилі" data-name="Хвилі">
    <path class="cls-2" d="M503.53,287.97c-22.39,16.35-50.11,26.01-80.12,26.01-18.43,0-36-3.65-52-10.24-2.96-1.22-16.12-6.89-31.1-18.57,7.89.03,15.79.07,23.68.1.9.1,1.8.2,2.7.31,4.45,1.64,11.52,3.77,20.37,4.29,11.36.67,15.11-1.94,27.58-2.55,13.82-.68,12.07,2.39,30.64,2.73,14.41.25,28.81-1.35,31.53-1.66,8.72-1.01,10.4-1.66,15.42-1.63,4.08.03,7.86.5,11.3,1.21Z"/>
    <path class="cls-2" d="M527.14,265.97c-5.69,6.75-12.04,12.93-18.96,18.46-4.13-1.06-8.85-1.8-14.04-1.84-5.02-.03-6.69.62-15.42,1.62-2.72.31-17.12,1.92-31.53,1.66-18.56-.33-16.82-3.4-30.64-2.72-12.47.61-16.22,3.22-27.57,2.55-8.85-.52-15.93-2.66-20.38-4.3-.9-.1-1.8-.2-2.7-.3-10.25-.05-20.49-.09-30.74-.13-6.36-5.43-12.87-11.93-18.93-19.62,13.81-.14,27.63-.29,41.44-.43,7.03.09,14.07.18,21.1.27.77.01,1.9.07,3.25.32,3.56.64,5.95,2.08,6.9,2.58,4.41,2.37,9.72,1.96,14.54,1.6,6.17-.47,6.79-2.06,14.3-2.55,3.39-.23,6.05-.09,7.66,0,6.02.32,9.78,1.3,12.93,1.87,4.56.81,9.08.63,18.13.25,19.93-.82,19.69-3.01,31.24-2.38,4.38.24,12.88,1.01,18.12,1.53,3.82.38,6.44.67,7.32.77,3.35.36,7.86.68,13.98.79Z"/>
    <path class="cls-2" d="M539.67,244.57c.71.03,1.42.06,2.13.09-3.4,6.16-7.28,12.02-11.61,17.53-6.55-.09-11.32-.43-14.83-.81-.88-.09-3.5-.39-7.32-.76-5.24-.52-13.74-1.3-18.13-1.53-11.55-.63-11.3,1.55-31.23,2.38-9.05.37-13.57.56-18.13-.26-3.15-.56-6.91-1.54-12.93-1.87-1.61-.09-4.28-.22-7.66,0-7.51.5-8.13,2.08-14.3,2.55-4.82.37-10.13.77-14.54-1.59-.95-.51-3.34-1.94-6.9-2.59-1.35-.24-2.49-.3-3.26-.31-7.03-.09-14.06-.18-21.09-.27-15.49.16-30.99.32-46.48.48-3.66-5-7.11-10.46-10.2-16.41,30.49.03,60.98.07,91.47.1.98-.06,2.6-.09,4.52.29,2.7.54,4.51,1.58,5.22,1.95,3.61,1.87,9.77,1.02,22.1-.66,1.89-.25,4.29-.61,7.6-.44,3.55.18,6.13.86,6.68.99,3.8.93,14.59,1.22,42.22-.7,2.12-.32,5.36-.68,9.31-.58,5.25.14,7.87.99,12.51,1.66,4.13.59,5.21.36,16.79.45,4.27.03,10.46.1,18.06.31Z"/>
    <path class="cls-2" d="M551.41,222.8c-2.11,6.32-4.7,12.44-7.71,18.3-.57-.03-1.15-.05-1.72-.08-7.6-.21-13.79-.29-18.07-.32-11.57-.08-12.66.15-16.78-.44-4.64-.67-7.26-1.53-12.51-1.66-3.95-.11-7.19.26-9.31.58-27.63,1.91-38.42,1.62-42.22.7-.55-.14-3.14-.82-6.69-1-3.3-.16-5.7.19-7.59.45-12.33,1.68-18.49,2.52-22.1.65-.71-.36-2.52-1.41-5.22-1.94-1.92-.38-3.54-.36-4.53-.29-31.85-.04-63.69-.07-95.55-.11l-.36-.75c-2.7-5.71-4.48-10.61-5.57-13.87,85.31-.07,170.62-.15,255.93-.22Z"/>
  </g>
  <g id="_Хвилі-2" data-name="Хвилі">
    <path class="cls-4" d="M530.19,262.19c-.99,1.28-2.01,2.54-3.05,3.78-6.12-.11-10.63-.43-13.98-.79-.88-.1-3.5-.39-7.32-.77-5.24-.52-13.74-1.29-18.12-1.53-11.55-.63-11.31,1.56-31.24,2.38-9.05.38-13.57.56-18.13-.25-3.15-.57-6.91-1.55-12.93-1.87-1.61-.09-4.27-.23-7.66,0-7.51.49-8.13,2.08-14.3,2.55-4.82.36-10.13.77-14.54-1.6-.95-.5-3.34-1.94-6.9-2.58-1.35-.25-2.48-.31-3.25-.32-7.03-.09-14.07-.18-21.1-.27-13.81.14-27.63.29-41.44.43-.96-1.22-1.91-2.46-2.84-3.74,15.49-.16,30.99-.32,46.48-.48,7.03.09,14.06.18,21.09.27.77.01,1.91.07,3.26.31,3.56.65,5.95,2.08,6.9,2.59,4.41,2.36,9.72,1.96,14.54,1.59,6.17-.47,6.79-2.05,14.3-2.55,3.38-.22,6.05-.09,7.66,0,6.02.33,9.78,1.31,12.93,1.87,4.56.82,9.08.63,18.13.26,19.93-.83,19.68-3.01,31.23-2.38,4.39.23,12.89,1.01,18.13,1.53,3.82.37,6.44.67,7.32.76,3.51.38,8.28.72,14.83.81Z"/>
    <path class="cls-4" d="M543.7,241.1c-.61,1.2-1.25,2.39-1.9,3.56-.71-.03-1.42-.06-2.13-.09-7.6-.21-13.79-.28-18.06-.31-11.58-.09-12.66.14-16.79-.45-4.64-.67-7.26-1.52-12.51-1.66-3.95-.1-7.19.26-9.31.58-27.63,1.92-38.42,1.63-42.22.7-.55-.13-3.13-.81-6.68-.99-3.31-.17-5.71.19-7.6.44-12.33,1.68-18.49,2.53-22.1.66-.71-.37-2.52-1.41-5.22-1.95-1.92-.38-3.54-.35-4.52-.29-30.49-.03-60.98-.07-91.47-.1-.61-1.16-1.2-2.35-1.78-3.56,31.86.04,63.7.07,95.55.11.99-.07,2.61-.09,4.53.29,2.7.53,4.51,1.58,5.22,1.94,3.61,1.87,9.77,1.03,22.1-.65,1.89-.26,4.29-.61,7.59-.45,3.55.18,6.14.86,6.69,1,3.8.92,14.59,1.21,42.22-.7,2.12-.32,5.36-.69,9.31-.58,5.25.13,7.87.99,12.51,1.66,4.12.59,5.21.36,16.78.44,4.28.03,10.47.11,18.07.32.57.03,1.15.05,1.72.08Z"/>
    <path class="cls-4" d="M508.18,284.43c-1.52,1.21-3.07,2.4-4.65,3.54-3.44-.71-7.22-1.18-11.3-1.21-5.02-.03-6.7.62-15.42,1.63-2.72.31-17.12,1.91-31.53,1.66-18.57-.34-16.82-3.41-30.64-2.73-12.47.61-16.22,3.22-27.58,2.55-8.85-.52-15.92-2.65-20.37-4.29-.9-.11-1.8-.21-2.7-.31-7.89-.03-15.79-.07-23.68-.1-1.7-1.32-3.42-2.72-5.15-4.2,10.25.04,20.49.08,30.74.13.9.1,1.8.2,2.7.3,4.45,1.64,11.53,3.78,20.38,4.3,11.35.67,15.1-1.94,27.57-2.55,13.82-.68,12.08,2.39,30.64,2.72,14.41.26,28.81-1.35,31.53-1.66,8.73-1,10.4-1.65,15.42-1.62,5.19.04,9.91.78,14.04,1.84Z"/>
  </g>
  <path id="_Пальма" data-name="Пальма" class="cls-1" d="M519.45,164.45c4.04,14.61-.59,26.76-2.22,30.55-.11-3.17-.56-7.35-1.93-12.06-1.39-4.79-3.29-8.61-4.92-11.37-.4,3.96-.81,7.92-1.21,11.88-4.68-9.09-9.36-18.17-14.04-27.26.47,1.95.9,4.22,1.15,6.77.24,2.51.27,4.78.19,6.76-9.51-10.06-12.85-14.75-13.92-17.1-.19-.42-1.07-2.46-2.68-4.96-1-1.58-1.94-2.78-2.55-3.53.74,1.64,1.58,3.95,1.98,6.83.29,2.16.26,4.05.13,5.55-6.97-7-13.93-14-20.89-21,.23.4.46.8.68,1.2.44.78.87,1.55,1.29,2.32,8.6,15.62,13.65,29.35,16.72,39.29,9.44,30.57,9.74,64.09,9.82,83.57.06,15.8-.74,28.77-1.43,37.32-3.49,1.85-7.46,3.73-11.87,5.49-4.86,1.93-9.43,3.39-13.56,4.49,6.81-19.23,15.82-52.8,12.2-94.62-2.59-29.95-10.78-53.94-17.85-70.17-.49.13-.9.19-1.21.22-1.14,4.76-2.89,10.37-5.62,16.42-1.99,4.41-4.14,8.24-6.21,11.49.06-3.61-.23-7.79-1.19-12.34-.28-1.31-.6-2.56-.94-3.74-.27,2.77-.79,5.87-1.7,9.19-2.48,9.02-6.79,15.73-10.21,20.08-.08-2.12-.34-4.63-.94-7.4-.48-2.19-1.08-4.13-1.7-5.79-.86,4.02-2.2,8.76-4.34,13.87-1.57,3.75-3.28,7.01-4.94,9.79-.23-1.77-.69-3.94-1.62-6.3-.47-1.21-1-2.29-1.53-3.23-1.7,9.3-3.4,18.61-5.1,27.91-1.87-4-9.75-22.09-2.59-43.3,8.78-26.01,32.9-35.15,36.03-36.27-.07-.31-.14-.62-.21-.93-6.28,1.71-12.56,3.4-18.85,5.1,1.13-2.1,2.27-4.2,3.4-6.3-2.61,2.56-5.22,5.11-7.83,7.66-3.29.85-6.58,1.7-9.87,2.56.85-2.67,1.7-5.34,2.55-8-1.75,2.55-3.51,5.1-5.27,7.65-4.09,2.67-8.17,5.34-12.26,8,1.05-3,2.02-6.32,2.81-9.95.3-1.37.55-2.71.77-4-3.8,3.41-7.83,7.36-11.92,11.91-3.7,4.12-6.92,8.14-9.7,11.92-.32-5.32-.38-18.91,8.68-29.62,12.77-15.1,38.77-18.73,62.42-6.17.23-.19.46-.37.69-.55-3.87-4.16-9.22-9.1-16.3-13.62-5-3.2-9.76-5.49-13.87-7.15,3.57-.2,7.15-.4,10.72-.6-1.94-1.16-4.09-2.32-6.47-3.4-6.8-3.09-13.17-4.52-18.3-5.19,1.39-1.68,3.36-3.69,6.05-5.53,1.34-.92,2.64-1.65,3.83-2.22-2.19.22-5.88.25-9.96-1.36-1.78-.7-3.23-1.56-4.36-2.36,2.76-1.17,6.77-2.44,11.68-2.55,11.89-.27,20.27,6.44,22.75,8.59-.42-1.49-1.32-3.89-3.35-6.19-1.05-1.2-2.15-2.07-3.06-2.68,1.1.07,2.73.26,4.6.85,1.32.43,6.48,2.25,12.08,10.22,6.92,9.84,9.17,21.44,9.96,26.8.22,2.19.44,4.39.65,6.59,0-.86,0-1.75.03-2.67.15-5.65.33-12.53,2.98-19.83,1.57-4.36,5.53-15.3,16.42-20.85,7.17-3.66,14.09-3.32,15.41-3.24,3.99.25,7.18,1.28,9.27,2.13-1.59.1-3.72.39-6.12,1.19-2.4.8-4.29,1.85-5.62,2.73,1.23.04,3.07.26,5.11,1.1,2.88,1.2,4.71,3.03,5.61,4.09-4.05,1.03-8.67,2.51-13.61,4.68-3.44,1.5-6.5,3.1-9.2,4.68,1.98-.57,4.57-1.04,7.58-.87.88.05,1.7.15,2.47.27-4.97,2.95-13.73,9.21-18.73,20.34-.62,1.39-1.14,2.76-1.58,4.08,14.7-16.55,36.12-21.91,51.8-14.37,12.6,6.05,17.68,18.6,19.14,22.72-4.41-2.4-9.53-4.84-15.31-7.06-4.53-1.74-8.81-3.1-12.77-4.17,2.41,2.95,4.82,5.9,7.23,8.85-7-.37-14.01-.74-21.02-1.11-2.24-1.7-4.48-3.4-6.72-5.11-.31.2-.63.4-.94.6,1.42,1.36,2.84,2.72,4.26,4.08-6.7.4-13.39.8-20.09,1.2-.84.47-1.68.93-2.53,1.4,9.53-.47,25.41.81,38.53,12.04,3.03,2.59,11.46,10.01,15.07,23.07Z"/>
  <g id="_текст" data-name="текст">
    <g>
      <path class="cls-6" d="M212.15,342.92c5.63,2.65,10.77,6.64,15.43,11.94l-11.77,14.84c-6.82-6.63-13.59-9.95-20.29-9.95-3.87,0-6.88,1.21-9.04,3.62-2.16,2.41-3.24,5.61-3.24,9.59s1.25,7.03,3.75,9.5c2.5,2.47,7.33,5.34,14.49,8.6,6.59,3.14,11.94,6.37,16.03,9.68,4.09,3.32,7.19,7.39,9.29,12.21,2.1,4.83,3.15,10.8,3.15,17.92,0,7.6-1.62,14.42-4.86,20.45-3.24,6.03-7.87,10.74-13.9,14.12-6.03,3.38-13.07,5.07-21.14,5.07s-15.69-1.57-21.83-4.71-11.65-7.48-16.54-13.03l12.79-15.02c4.09,3.86,7.99,6.79,11.68,8.78,3.69,1.99,7.64,2.99,11.85,2.99,4.66,0,8.19-1.48,10.57-4.43,2.39-2.96,3.58-6.97,3.58-12.03,0-4.58-1.19-8.35-3.58-11.31-2.39-2.96-6.71-5.76-12.96-8.42-10.91-4.82-18.65-10.16-23.19-16.01-4.55-5.85-6.82-13.24-6.82-22.17,0-7.12,1.59-13.42,4.77-18.91,3.18-5.49,7.59-9.74,13.22-12.76,5.63-3.01,11.96-4.52,19.01-4.52s13.9,1.33,19.52,3.98Z"/>
      <path class="cls-6" d="M304.83,342.02l-2.73,20.27h-32.91v31.49h28.99v19.91h-28.99v33.12h35.13v20.63h-61.9v-125.41h62.41Z"/>
      <path class="cls-6" d="M370.65,467.42l-4.77-27.51h-26.26l-4.6,27.51h-26.6l28.65-125.41h32.06l28.65,125.41h-27.11ZM343.19,419.47h19.27l-9.72-56.64-9.55,56.64Z"/>
      <path class="cls-6" d="M458.55,342.92c5.63,2.65,10.77,6.64,15.43,11.94l-11.77,14.84c-6.82-6.63-13.59-9.95-20.29-9.95-3.87,0-6.88,1.21-9.04,3.62-2.16,2.41-3.24,5.61-3.24,9.59s1.25,7.03,3.75,9.5c2.5,2.47,7.33,5.34,14.49,8.6,6.59,3.14,11.94,6.37,16.03,9.68,4.09,3.32,7.19,7.39,9.29,12.21,2.1,4.83,3.16,10.8,3.16,17.92,0,7.6-1.62,14.42-4.86,20.45-3.24,6.03-7.87,10.74-13.9,14.12-6.03,3.38-13.07,5.07-21.14,5.07s-15.69-1.57-21.83-4.71-11.65-7.48-16.54-13.03l12.79-15.02c4.09,3.86,7.98,6.79,11.68,8.78,3.69,1.99,7.64,2.99,11.85,2.99,4.66,0,8.18-1.48,10.57-4.43,2.39-2.96,3.58-6.97,3.58-12.03,0-4.58-1.19-8.35-3.58-11.31-2.39-2.96-6.71-5.76-12.96-8.42-10.91-4.82-18.64-10.16-23.19-16.01-4.55-5.85-6.82-13.24-6.82-22.17,0-7.12,1.59-13.42,4.77-18.91,3.18-5.49,7.59-9.74,13.21-12.76,5.63-3.01,11.96-4.52,19.01-4.52s13.9,1.33,19.52,3.98Z"/>
      <path class="cls-6" d="M515.59,342.02v125.41h-26.77v-125.41h26.77Z"/>
      <path class="cls-6" d="M589.34,346.82c7.33,3.2,13.3,9.35,17.9,18.46,4.6,9.11,6.91,22.05,6.91,38.82,0,23.52-4.46,39.96-13.39,49.31-8.93,9.35-20.89,14.02-35.89,14.02h-31.72v-125.41h29.84c10.23,0,19.01,1.6,26.35,4.8ZM559.92,362.47v84.33h6.48c4.54,0,8.27-1.24,11.17-3.71,2.9-2.47,5.14-6.81,6.74-13.03,1.59-6.21,2.39-14.87,2.39-25.97s-.83-19.84-2.47-25.88c-1.65-6.03-3.92-10.16-6.82-12.4-2.9-2.23-6.56-3.35-11-3.35h-6.48Z"/>
      <path class="cls-6" d="M690.88,342.02l-2.73,20.27h-32.91v31.49h28.99v19.91h-28.99v33.12h35.13v20.63h-61.9v-125.41h62.41Z"/>
    </g>
    <g>
      <path class="cls-5" d="M253.32,493.91l-10.39,39.66h-14.18l-10.95-39.66h11.02l7.16,32.56,6.6-32.56h10.74Z"/>
      <path class="cls-5" d="M289.9,493.91l-1.12,6.41h-13.55v9.96h11.94v6.29h-11.94v10.47h14.46v6.52h-25.49v-39.66h25.7Z"/>
      <path class="cls-5" d="M334.76,533.57h-13.62l-10.25-31.42c.47,3.32.82,6.09,1.05,8.33.23,2.23.35,4.93.35,8.1v14.99h-9.48v-39.66h13.62l10.25,31.42c-.98-5.26-1.47-10.21-1.47-14.82v-16.6h9.55v39.66Z"/>
      <path class="cls-5" d="M372.64,495.43c3.02,1.01,5.48,2.96,7.37,5.84,1.9,2.88,2.84,6.97,2.84,12.28,0,7.44-1.84,12.64-5.51,15.59-3.68,2.96-8.6,4.44-14.78,4.44h-13.06v-39.66h12.29c4.21,0,7.83.51,10.85,1.52ZM360.53,500.38v26.67h2.67c1.87,0,3.41-.39,4.6-1.17,1.19-.78,2.12-2.16,2.77-4.12.65-1.96.98-4.7.98-8.21s-.34-6.28-1.02-8.18c-.68-1.91-1.62-3.21-2.81-3.92-1.19-.71-2.7-1.06-4.53-1.06h-2.67Z"/>
      <path class="cls-5" d="M407.36,493.91v39.66h-11.02v-39.66h11.02Z"/>
      <path class="cls-5" d="M454.12,533.57h-13.62l-10.25-31.42c.47,3.32.82,6.09,1.05,8.33.23,2.23.35,4.93.35,8.1v14.99h-9.48v-39.66h13.62l10.25,31.42c-.98-5.26-1.47-10.21-1.47-14.82v-16.6h9.55v39.66Z"/>
      <path class="cls-5" d="M501.3,497.75l-5.27,4.52c-1.45-.99-2.77-1.71-3.97-2.15-1.19-.44-2.56-.66-4.11-.66-3,0-5.24,1.05-6.74,3.15-1.5,2.1-2.25,5.8-2.25,11.1,0,3.74.26,6.64.77,8.7.51,2.06,1.29,3.49,2.32,4.29,1.03.8,2.39,1.2,4.07,1.2s3.35-.4,4.84-1.2v-9.5h-4.63l-1.05-6.35h16.08v19.57c-2.11,1.26-4.49,2.25-7.16,2.98-2.67.72-5.29,1.09-7.86,1.09-6.41,0-11.14-1.68-14.18-5.04-3.04-3.36-4.56-8.6-4.56-15.74,0-4.62.85-8.48,2.56-11.59,1.71-3.11,4.06-5.42,7.06-6.92,2.99-1.51,6.41-2.26,10.25-2.26,5.29,0,9.9,1.6,13.83,4.81Z"/>
    </g>
    <g>
      <path class="cls-5" d="M555.8,493.93c2.08.72,4.04,1.81,5.86,3.26l-5.12,4.92c-1.17-.84-2.31-1.48-3.41-1.92-1.1-.44-2.28-.66-3.55-.66-2.57,0-4.54,1.08-5.9,3.23-1.36,2.16-2.04,5.75-2.04,10.79s.69,8.47,2.07,10.64c1.38,2.17,3.36,3.26,5.93,3.26,1.4,0,2.62-.23,3.65-.69,1.03-.46,2.29-1.18,3.79-2.17l4.98,4.81c-1.68,1.49-3.65,2.7-5.9,3.63-2.25.93-4.75,1.4-7.51,1.4-5.62,0-10.1-1.75-13.44-5.27-3.35-3.51-5.02-8.72-5.02-15.62,0-4.54.78-8.36,2.35-11.45,1.57-3.09,3.76-5.41,6.56-6.95,2.81-1.55,6.04-2.32,9.69-2.32,2.57,0,4.9.36,6.99,1.09Z"/>
      <path class="cls-5" d="M603.19,498.02c3.16,3.45,4.74,8.65,4.74,15.59s-1.59,12.06-4.77,15.57c-3.18,3.51-7.75,5.27-13.69,5.27s-10.5-1.73-13.66-5.18c-3.16-3.45-4.74-8.67-4.74-15.65s1.58-12.05,4.74-15.54c3.16-3.49,7.71-5.24,13.66-5.24s10.57,1.73,13.73,5.18ZM584.17,502.66c-1.1,2.16-1.65,5.81-1.65,10.96,0,3.59.25,6.41.74,8.47.49,2.06,1.24,3.54,2.25,4.43,1.01.9,2.33,1.35,3.97,1.35s3.03-.44,4.04-1.32c1.01-.88,1.75-2.36,2.25-4.44.49-2.08.74-4.91.74-8.5,0-5.19-.55-8.85-1.65-10.99-1.1-2.14-2.89-3.2-5.37-3.2s-4.2,1.08-5.3,3.23Z"/>
      <path class="cls-5" d="M628.79,525.92c1.12.99,1.69,2.17,1.69,3.55s-.56,2.55-1.69,3.52c-1.12.97-2.55,1.46-4.28,1.46s-3.22-.49-4.32-1.46c-1.1-.97-1.65-2.15-1.65-3.52s.55-2.56,1.65-3.55c1.1-.99,2.54-1.49,4.32-1.49s3.16.5,4.28,1.49Z"/>
    </g>
  </g>
</svg>