<?xml version="1.0" encoding="UTF-8"?>
<svg id="_Шар_2" data-name="Шар 2" xmlns="http://www.w3.org/2000/svg" width="297mm" height="228.6mm" viewBox="0 0 841.89 648">
  <defs>
    <style>
      .cls-1 {
        stroke-width: 4px;
      }

      .cls-1, .cls-2 {
        fill: none;
      }

      .cls-1, .cls-2, .cls-3, .cls-4, .cls-5 {
        stroke: #1d1d1b;
        stroke-miterlimit: 10;
      }

      .cls-6, .cls-4, .cls-5 {
        fill: #1d1d1b;
      }

      .cls-2, .cls-3, .cls-4 {
        stroke-width: .25px;
      }

      .cls-3 {
        fill: #fff;
      }

      .cls-7 {
        fill: #be1622;
      }

      .cls-8 {
        fill: #312783;
      }
    </style>
  </defs>
  <rect class="cls-7" y="37.6" width="841.89" height="199.63"/>
  <rect class="cls-8" y="434.13" width="841.89" height="199.23"/>
  <path class="cls-1" d="M704.21,337.02c0,.17.01.35,0,.52l-557.33-2.87c1.94-153.4,126.04-277.12,278.77-277.06,153.45.06,277.87,125.03,278.55,279.42Z"/>
  <circle id="_Коло" data-name="Коло" class="cls-5" cx="545.17" cy="236.76" r="63.84"/>
  <g id="_гора" data-name="гора">
    <g>
      <path class="cls-2" d="M415.66,375.01c-1.81-1.12-3.62-2.24-5.43-3.36"/>
      <path class="cls-4" d="M416.06,374.32c-1.81-1.12-3.62-2.24-5.43-3.36-.37-.23-.89-.08-1.1.29s-.08.87.29,1.1c1.81,1.12,3.62,2.24,5.43,3.36.37.23.89.08,1.1-.29s.08-.87-.29-1.1h0Z"/>
    </g>
    <g>
      <path class="cls-3" d="M427.22,398.46l-1.61-3.32c-.57-2.22-1.19-4.42-1.95-6.57-1.08-3.05-2.92-5.71-5.15-8.03l-1.04-2.15c4.11,3.68,5.86,7.09,6.67,9.17,1.04,2.67,2.28,7.59,2.49,8.37.26,1.04.46,1.92.59,2.52Z"/>
      <path class="cls-4" d="M426.44,398.67c-.27-1.17-.54-2.36-.84-3.53-.57-2.22-1.19-4.42-1.95-6.57-1.08-3.05-2.92-5.71-5.15-8.03-.5-.54-1.06-1.07-1.61-1.58-.77-.7.37-1.83,1.13-1.13,3.03,2.74,5.57,6,7.01,9.85,1.28,3.41,2.15,7.02,2.96,10.56.22,1.02-1.33,1.44-1.56.43Z"/>
    </g>
    <g>
      <path class="cls-2" d="M459.33,374.19c.6-2.08,1.21-4.17,1.81-6.25"/>
      <path class="cls-4" d="M460.11,374.41c.6-2.08,1.21-4.17,1.81-6.25.29-1-1.26-1.42-1.55-.43-.6,2.08-1.21,4.17-1.81,6.25-.29,1,1.26,1.42,1.55.43h0Z"/>
    </g>
    <g>
      <path class="cls-2" d="M489.93,362.83c1.52-1.39,3.03-2.78,4.55-4.17"/>
      <path class="cls-4" d="M490.5,363.39c1.52-1.39,3.03-2.78,4.55-4.17.31-.29.31-.85,0-1.14-.33-.31-.81-.3-1.14,0-1.52,1.39-3.03,2.78-4.55,4.17-.31.29-.31.85,0,1.14.33.31.81.3,1.14,0h0Z"/>
    </g>
    <g>
      <path class="cls-2" d="M486.65,368.42c-1.28,2.69-2.56,5.37-3.84,8.06"/>
      <path class="cls-4" d="M485.95,368.01c-1.28,2.69-2.56,5.37-3.84,8.06-.19.39-.11.87.29,1.1.35.21.91.11,1.1-.29,1.28-2.69,2.56-5.37,3.84-8.06.19-.39.11-.87-.29-1.1-.35-.21-.91-.11-1.1.29h0Z"/>
    </g>
    <g>
      <path class="cls-3" d="M473.31,387.64l-.95,1.48c-.89.59-1.67,1.37-2.31,2.32-.71,1.07-1.04,2.28-1.44,3.47l-3.36,5.19c-.12.12-.22.23-.33.35-.68.7-1.56,1.34-2.05,2.19-.44.76-.7,1.65-.91,2.55l-1.35,2.09c.13-.44.32-1.11.55-1.91.62-2.11.61-2.22.77-2.63.5-1.22,1.15-1.52,2.58-3.01,1.04-1.1,1.95-2.05,2.69-3.35,1.3-2.29.76-3.31,2.29-5.54.71-1,1.39-1.62,1.53-1.75.76-.67,1.56-1.12,2.29-1.44Z"/>
      <path class="cls-3" d="M477.21,381.62c-.53,1.78-1.06,3.56-1.58,5.32-.58.1-1.4.28-2.32.7l.73-1.12c.31-.1.63-.19.95-.26.22-.76.45-1.51.67-2.25l1.55-2.38Z"/>
      <path class="cls-4" d="M477.99,381.84c-.53,1.78-1.06,3.54-1.58,5.32-.08.24-.28.52-.57.55-1.28.23-2.45.7-3.48,1.4-.89.59-1.67,1.37-2.31,2.32-.71,1.07-1.04,2.28-1.44,3.47-.31.9-.64,1.8-1.2,2.62-.63.94-1.39,1.78-2.16,2.58-.12.12-.22.23-.33.35-.68.7-1.56,1.34-2.05,2.19-.44.76-.7,1.65-.91,2.55-.21.8-.36,1.58-.58,2.31-.3.99-1.86.57-1.56-.43.52-1.71.79-3.8,1.73-5.36.54-.86,1.37-1.52,2.07-2.23,1.07-1.07,2.14-2.19,2.89-3.52.62-1.11.82-2.29,1.25-3.48.41-1.19,1.1-2.24,1.93-3.18,1.17-1.33,2.69-2.25,4.37-2.78.31-.1.63-.19.95-.26.22-.76.45-1.51.67-2.25.26-.86.52-1.73.77-2.59.3-.99,1.86-.57,1.55.43Z"/>
    </g>
    <g>
      <path class="cls-3" d="M496.57,406.68c1.95,2.13,4.05,5.2,4.88,9.21.09.45.16.89.22,1.32l-5.1-10.53Z"/>
      <path class="cls-4" d="M496,407.25c2.53,2.78,4.36,6.2,4.86,9.96.06.43.33.81.81.81.39,0,.86-.37.81-.81-.56-4.21-2.49-7.97-5.33-11.09-.7-.77-1.83.37-1.14,1.14h0Z"/>
    </g>
    <g>
      <path class="cls-3" d="M512.68,374.72c1.08,2.05,2.08,4.35,2.91,6.91.1.29.19.59.27.88l-3.18-7.78Z"/>
      <path class="cls-4" d="M511.99,375.13c1.27,2.43,2.3,4.97,3.1,7.59.3.99,1.85.57,1.55-.43-.83-2.75-1.92-5.43-3.26-7.98-.48-.92-1.87-.11-1.39.81h0Z"/>
    </g>
    <g>
      <path class="cls-2" d="M520.39,388.97c.52,1.79,1.04,3.58,1.56,5.37"/>
      <path class="cls-4" d="M519.62,389.19c.52,1.79,1.04,3.58,1.56,5.37.12.42.57.68.99.56s.68-.57.56-.99c-.52-1.79-1.04-3.58-1.56-5.37-.12-.42-.57-.68-.99-.56s-.68.57-.56.99h0Z"/>
    </g>
    <g>
      <path class="cls-2" d="M527.21,402.57c.88,1.32,1.75,2.63,2.63,3.95"/>
      <path class="cls-4" d="M526.52,402.97c.88,1.32,1.75,2.63,2.63,3.95.23.35.72.53,1.1.29.35-.22.54-.73.29-1.1-.88-1.32-1.75-2.63-2.63-3.95-.23-.35-.72-.53-1.1-.29-.35.22-.54.73-.29,1.1h0Z"/>
    </g>
    <g>
      <path class="cls-2" d="M532.64,413.04c.99,2.49,1.97,4.97,2.96,7.46"/>
      <path class="cls-4" d="M531.86,413.25c.99,2.49,1.97,4.97,2.96,7.46.16.4.54.69.99.56.38-.11.72-.58.56-.99l-2.96-7.46c-.16-.4-.54-.69-.99-.56-.38.11-.72.58-.56.99h0Z"/>
    </g>
    <g>
      <path class="cls-3" d="M544.99,415.81l1.29-2.27c-.12.46-.21.9-.26,1.3-.08.5-.17,1.38-.55,2.52-1.1,3.31-3.41,5.53-5.26,6.9l1.15-2.04c1.11-1.06,2.06-2.28,2.74-3.66.45-.9.7-1.83.89-2.77Z"/>
      <path class="cls-3" d="M552.1,403.23l-5.82,10.32c.61-2.54,2.14-5.95,5.82-10.32Z"/>
      <path class="cls-4" d="M552.66,403.79c-2.6,3.12-5.05,6.71-5.8,10.77-.39,2.15-.84,4.12-2.04,5.99-1.11,1.74-2.58,3.18-4.23,4.42-.82.63-1.62-.77-.81-1.39.54-.41,1.07-.85,1.56-1.34,1.11-1.06,2.06-2.28,2.74-3.66.45-.9.7-1.83.89-2.77.18-.85.31-1.7.53-2.56.98-3.98,3.43-7.48,6.02-10.59.66-.8,1.79.35,1.13,1.13Z"/>
    </g>
    <g>
      <path class="cls-3" d="M548.7,449.33c-2.38-1.3-5.08-3.3-5.32-6.09-.03-.37,0-.63,0-.76.14-1.97-.58-5.81-3.94-13.76l4.17,9.29c.18.73.33,1.47.44,2.2.18,1.19-.05,2.51.26,3.66.52,1.88,2.18,3.21,3.83,4.2l.57,1.26Z"/>
      <path class="cls-4" d="M548.3,450.03c-2.04-1.12-4.15-2.59-5.17-4.75-.67-1.4-.44-2.8-.59-4.28-.44-4.15-2.28-8.27-3.88-12.07-.4-.95,1.16-1.37,1.55-.43,1.29,3.07,2.64,6.24,3.4,9.51.18.73.33,1.47.44,2.2.18,1.19-.05,2.51.26,3.66.52,1.88,2.18,3.21,3.83,4.2.33.21.66.39.98.57.9.5.09,1.89-.81,1.39Z"/>
    </g>
    <g>
      <path class="cls-3" d="M505.77,467.15l-.85-1.64c-.09-2.41-.19-4.81-.35-7.21-.12-1.83-.1-3.45-1.78-4.56-.97-.63-2.05-1.02-2.92-1.79-.91-.81-1.6-1.88-1.96-3.05-.41-1.35-.84-2.45-1.91-3.45-.7-.64-1.51-1.15-2.37-1.53l-.58-1.11c1.46.53,3.44,1.53,4.71,3.52,1.04,1.62.58,2.32,1.65,3.89,1.73,2.56,3.85,2.04,5.26,4.33.48.77.58,1.39.77,4.82.12,2.06.23,4.69.32,7.79Z"/>
      <path class="cls-4" d="M506.58,467.15c.03,1.03-1.58,1.03-1.61,0-.01-.54-.04-1.09-.05-1.64-.09-2.41-.19-4.81-.35-7.21-.12-1.83-.1-3.45-1.78-4.56-.97-.63-2.05-1.02-2.92-1.79-.91-.81-1.6-1.88-1.96-3.05-.41-1.35-.84-2.45-1.91-3.45-.7-.64-1.51-1.15-2.37-1.53-.27-.12-.53-.22-.8-.32-.95-.36-.54-1.92.44-1.56,2.46.91,4.82,2.52,5.8,5.08.53,1.39.71,2.65,1.95,3.7.98.84,2.25,1.19,3.23,2.02,1.47,1.25,1.74,2.77,1.88,4.6.24,3.23.35,6.48.45,9.73Z"/>
    </g>
    <g>
      <path class="cls-3" d="M555.69,460.15l-5.02-6.88c2.8,2.52,4.25,4.9,5.02,6.88Z"/>
      <path class="cls-3" d="M568.21,477.29c-1.21-.41-2.8-1.09-4.43-2.2-.5-.35-1-.72-1.51-1.16-.08-.06-.17-.13-.24-.21-.03-.01-.04-.04-.06-.05-.13-.12-.3-.26-.48-.43-.08-.08-.15-.15-.24-.23-.13-.13-.27-.27-.43-.43-.04-.04-.09-.09-.14-.14-1.25-1.29-2.83-3.31-3.7-6.12-.57-1.83-.32-2.37-.66-4.06-.13-.64-.32-1.34-.63-2.11l1.34,1.84.06.09c.22,1.08.23,2.19.46,3.26.03.18.08.36.13.54.7,2.41,2.07,4.55,3.84,6.31h.01c.03.05.08.09.12.13.09.08.17.17.26.24.13.12.26.23.39.35.9.8,1.89,1.51,2.94,2.11.68.4,1.38.75,2.1,1.04l.88,1.21Z"/>
      <path class="cls-4" d="M568.61,477.2c-.17.22-.44.33-.79.21-.98-.33-1.93-.76-2.85-1.25-.57-.3-1.13-.63-1.67-.99.15-.04.31-.06.48-.08-.5-.35-1-.72-1.51-1.16,0,.17-.01.33-.01.49-.15-.1-.3-.22-.44-.33-.12-.09-.23-.18-.35-.28-.15-.12-.3-.24-.44-.37-.12-.09-.22-.19-.33-.3-.15-.13-.3-.27-.44-.43-1.46-1.43-2.67-3.1-3.52-4.96-.61-1.33-1-2.71-1.16-4.16-.1-1.15-.27-2.24-.64-3.34-.94-2.78-2.87-5.09-5.01-7.06-.76-.7.37-1.84,1.15-1.13,2.05,1.89,3.88,4.08,5,6.67.37.86.67,1.75.85,2.67v.04c.04.19.06.37.1.57.15,1.08.18,2.18.49,3.23.01.04.03.08.04.12.72,2.41,2.13,4.56,3.93,6.33.09.08.17.17.26.24,1.46,1.35,3.14,2.47,4.93,3.28.17.08.32.15.49.22.36.17.72.31,1.09.44.63.22.67.94.35,1.34Z"/>
    </g>
    <g>
      <path class="cls-2" d="M561.5,473.01c-.05,1.37-.11,2.74-.16,4.11"/>
      <path class="cls-4" d="M562.31,473c-.01.23-.01.48-.03.71,0,.08,0,.15-.01.22,0,.17-.01.33-.01.49,0,.1-.01.21-.01.31-.01.26-.01.52-.04.76-.01.53-.04,1.06-.06,1.57v.05c-.01.45-.35.79-.8.81-.22.01-.43-.09-.58-.26-.14-.14-.23-.35-.23-.55.01-.22.03-.45.03-.67.05-1.03.09-2.05.13-3.09,0-.08,0-.14.01-.22v-.13c0-.15.04-.3.12-.41.03-.05.08-.1.12-.15.14-.14.33-.22.57-.23h.04c.13,0,.26.05.37.12.09.08.17.17.26.24.08.1.13.23.13.36.01.03.01.05.01.08Z"/>
    </g>
    <g>
      <path class="cls-2" d="M566.19,440.94c-2.3,4.02-4.6,8.04-6.91,12.06"/>
      <path class="cls-4" d="M565.49,440.53c-2.3,4.02-4.6,8.04-6.91,12.06-.52.9.87,1.71,1.39.81,2.3-4.02,4.6-8.04,6.91-12.06.52-.9-.87-1.71-1.39-.81h0Z"/>
    </g>
    <g>
      <path class="cls-3" d="M591.95,442.53c-1.52,1.66-2.68,3.14-3.51,4.28-.89,1.21-1.37,1.99-1.75,3.01-.41,1.09-.55,2.06-.6,2.74l5.87-10.03Z"/>
      <path class="cls-4" d="M591.38,441.96c-1.45,1.59-2.83,3.27-4.06,5.03s-1.87,3.52-2.04,5.57c-.09,1.03,1.52,1.03,1.61,0,.16-1.83.87-3.41,1.92-4.9,1.14-1.6,2.39-3.12,3.71-4.57.7-.77-.44-1.91-1.14-1.14h0Z"/>
    </g>
    <g>
      <path class="cls-3" d="M575.07,430.25c-.32.53-.89,1.32-1.81,2.03-.65.49-1.27.8-1.75.99l3.56-3.01Z"/>
      <path class="cls-4" d="M574.37,429.85c-.07.12-.15.24-.23.35-.05.07-.09.14-.14.2-.02.03-.05.06-.07.1-.06.08.11-.14.02-.03-.25.31-.52.6-.81.87-.08.07-.16.14-.24.21,0,0-.16.13-.07.06s-.06.05-.08.06c-.18.13-.37.26-.57.38-.17.1-.35.2-.53.29-.08.04-.16.07-.24.11-.06.02-.2.06.01,0-.04.01-.09.03-.13.05-.2.08-.37.18-.48.37-.1.17-.14.43-.08.62.12.38.57.73.99.56,1.69-.67,3.11-1.83,4.04-3.39.22-.36.09-.9-.29-1.1s-.87-.1-1.1.29h0Z"/>
    </g>
    <g>
      <path class="cls-3" d="M590.85,399.88c-.93.7-2.27,1.89-3.4,3.73-.78,1.27-1.22,2.48-1.48,3.4l4.88-7.13Z"/>
      <path class="cls-4" d="M590.45,399.19c-2.53,1.91-4.38,4.55-5.25,7.61-.28,1,1.27,1.43,1.55.43.41-1.45,1.06-2.8,1.94-4.02.41-.56.87-1.09,1.36-1.57.22-.21.44-.42.67-.62.11-.09.22-.18.33-.27.04-.03.08-.07.13-.1-.11.09.07-.05.08-.06.35-.26.53-.69.29-1.1-.2-.34-.75-.55-1.1-.29h0Z"/>
    </g>
    <g>
      <path class="cls-3" d="M562.51,389.03c-.42,1.12-.97,2.39-1.7,3.73-.8,1.46-1.63,2.7-2.41,3.73l4.11-7.46Z"/>
      <path class="cls-4" d="M561.74,388.81c-.98,2.6-2.35,5.05-4.03,7.26-.26.35-.05.9.29,1.1.41.24.84.06,1.1-.29,1.77-2.33,3.16-4.91,4.19-7.65.15-.41-.17-.88-.56-.99-.45-.12-.84.15-.99.56h0Z"/>
    </g>
    <g>
      <path class="cls-3" d="M566.84,383.38c-.28.47-.71,1.06-1.32,1.64-.51.49-1.01.84-1.43,1.1l2.74-2.74Z"/>
      <path class="cls-4" d="M566.15,382.98c-.14.24-.3.47-.47.69-.08.11.09-.12.03-.04-.02.03-.05.06-.07.09-.05.07-.11.13-.17.2-.12.13-.24.26-.36.39s-.25.25-.39.37c-.07.06-.14.12-.21.18-.03.03-.06.05-.1.08-.01.01-.14.11-.03.03s0,0-.03.02c-.04.03-.07.05-.11.08-.06.04-.12.08-.18.13-.12.08-.25.16-.37.24-.36.22-.53.73-.29,1.1s.72.52,1.1.29c1.23-.75,2.28-1.8,3.03-3.03.22-.36.09-.9-.29-1.1s-.87-.1-1.1.29h0Z"/>
    </g>
    <g>
      <path class="cls-3" d="M615.58,381.19c2.89,3.2,4.24,6.11,4.93,8.17.86,2.53.94,4.39,2.41,7.13,1.18,2.19,2.58,3.72,3.56,4.66l-10.91-19.95Z"/>
      <path class="cls-4" d="M615.01,381.76c2.62,2.94,4.38,6.23,5.37,10.04s2.68,7.15,5.54,9.92c.75.72,1.89-.42,1.14-1.14-1.37-1.32-2.54-2.82-3.44-4.5-1-1.86-1.42-3.86-2-5.87-1.04-3.61-2.98-6.8-5.47-9.59-.69-.78-1.83.37-1.14,1.14h0Z"/>
    </g>
    <g>
      <path class="cls-2" d="M609.11,373.95c1.5,1.17,3,2.34,4.5,3.51"/>
      <path class="cls-4" d="M608.54,374.52c1.5,1.17,3,2.34,4.5,3.51.33.26.82.35,1.14,0,.27-.29.35-.86,0-1.14-1.5-1.17-3-2.34-4.5-3.51-.33-.26-.82-.35-1.14,0-.27.29-.35.86,0,1.14h0Z"/>
    </g>
    <g>
      <path class="cls-2" d="M600.01,361.4c1.3,1.46,2.59,2.92,3.89,4.39"/>
      <path class="cls-4" d="M599.44,361.97c1.3,1.46,2.59,2.92,3.89,4.39.28.32.86.31,1.14,0,.31-.34.3-.8,0-1.14-1.3-1.46-2.59-2.92-3.89-4.39-.28-.32-.86-.31-1.14,0-.31.34-.3.8,0,1.14h0Z"/>
    </g>
    <g>
      <path class="cls-3" d="M659.57,358.96l-1.08,2.02s-.01.01-.03.03c-1.56,1.22-2.45,3.05-3.38,4.75-1.69,3.12-3.12,6.33-4.34,9.64l-2.31,4.3c.7-2.29,2.52-7.95,5.31-13.15,1.83-3.38,2.73-5.06,4.17-6.13.32-.24.98-.7,1.65-1.46Z"/>
      <path class="cls-3" d="M661.48,355.42c-.17.66-.49,1.61-1.15,2.58-.24.36-.5.68-.76.97l1.91-3.54Z"/>
      <path class="cls-4" d="M662.27,355.64c-.64,2.27-1.96,3.92-3.77,5.35t-.03.03c-1.56,1.22-2.45,3.05-3.38,4.75-1.69,3.12-3.12,6.33-4.34,9.64-.55,1.49-1.07,3-1.53,4.52-.31.99-1.86.57-1.56-.43,1.46-4.75,3.27-9.39,5.63-13.77.99-1.83,1.93-3.9,3.47-5.37.63-.61,1.38-1.06,2-1.67.97-.98,1.6-2.16,1.96-3.47.28-1,1.84-.58,1.56.43Z"/>
    </g>
    <g>
      <path class="cls-3" d="M524.03,510.23c-.63-1.86-1.47-3.99-2.63-6.25-1.19-2.32-2.45-4.29-3.62-5.92l6.25,12.17Z"/>
      <path class="cls-4" d="M524.81,510.02c-1.49-4.41-3.62-8.58-6.33-12.36-.6-.83-2-.03-1.39.81,2.63,3.67,4.72,7.7,6.17,11.98.33.98,1.89.56,1.55-.43h0Z"/>
    </g>
    <g>
      <path class="cls-2" d="M544.2,487.32s-2.33,2.45-2.35,2.47c-.01.01-1.91,2.01-1.92,2.02"/>
      <path class="cls-4" d="M543.63,486.75c-1.12,1.17-2.23,2.34-3.35,3.52-.31.33-.62.65-.93.98-.29.31-.33.84,0,1.14s.83.33,1.14,0c1.15-1.21,2.29-2.41,3.44-3.61.28-.29.56-.59.84-.88s.33-.84,0-1.14-.83-.33-1.14,0h0Z"/>
    </g>
    <g>
      <path class="cls-2" d="M576.27,427.46c.27-.44.55-.88.82-1.32"/>
      <path class="cls-4" d="M576.97,427.86c.27-.44.55-.88.82-1.32.11-.17.14-.42.08-.62s-.2-.39-.37-.48c-.19-.1-.41-.15-.62-.08s-.37.19-.48.37c-.27.44-.55.88-.82,1.32-.11.17-.14.42-.08.62s.2.39.37.48c.19.1.41.15.62.08s.37-.19.48-.37h0Z"/>
    </g>
    <g>
      <path class="cls-2" d="M508.68,477.4c.04-.73.07-1.46.11-2.19"/>
      <path class="cls-4" d="M509.49,477.4c.04-.73.07-1.46.11-2.19.02-.42-.39-.82-.81-.81-.45.02-.78.35-.81.81-.04.73-.07,1.46-.11,2.19-.02.42.39.82.81.81.45-.02.78-.35.81-.81h0Z"/>
    </g>
    <g>
      <path class="cls-2" d="M489.75,438.67c.35.22.71.44,1.06.65"/>
      <path class="cls-4" d="M489.34,439.36c.35.22.71.44,1.06.65.09.06.19.09.3.1.11.02.21.02.32-.01.1-.02.2-.07.27-.14.09-.06.16-.13.21-.23.1-.19.15-.41.08-.62s-.19-.37-.37-.48c-.35-.22-.71-.44-1.06-.65-.09-.06-.19-.09-.3-.1-.11-.02-.21-.02-.32.01-.1.02-.2.07-.27.14-.09.06-.16.13-.21.23-.1.19-.15.41-.08.62s.19.37.37.48h0Z"/>
    </g>
    <g>
      <path class="cls-2" d="M485.23,433.23c.21.25.42.51.63.76"/>
      <path class="cls-4" d="M484.66,433.8c.21.25.42.51.63.76.07.08.16.13.26.17.1.05.2.07.31.07.11,0,.21-.02.31-.07.1-.03.19-.09.26-.17l.13-.16c.07-.13.11-.26.11-.41l-.03-.21c-.04-.14-.11-.25-.21-.36-.21-.25-.42-.51-.63-.76-.07-.08-.16-.13-.26-.17-.1-.05-.2-.07-.31-.07-.11,0-.21.02-.31.07-.1.03-.19.09-.26.17l-.13.16c-.07.13-.11.26-.11.41l.03.21c.04.14.11.25.21.36h0Z"/>
    </g>
    <g>
      <path class="cls-2" d="M429.58,402.13c.43.51.86,1.02,1.29,1.53"/>
      <path class="cls-4" d="M429.01,402.7c.43.51.86,1.02,1.29,1.53.13.15.38.24.57.24s.43-.09.57-.24.25-.35.24-.57l-.03-.21c-.04-.14-.11-.25-.21-.36-.43-.51-.86-1.02-1.29-1.53-.13-.15-.38-.24-.57-.24s-.43.09-.57.24-.25.35-.24.57l.03.21c.04.14.11.25.21.36h0Z"/>
    </g>
    <g>
      <path class="cls-2" d="M464.81,364.26c-.28.25-.56.5-.84.75"/>
      <path class="cls-4" d="M464.24,363.69c-.28.25-.56.5-.84.75-.08.07-.13.16-.17.26-.05.1-.07.2-.07.31,0,.11.02.21.07.31.03.1.09.19.17.26.15.14.35.25.57.24l.21-.03c.14-.04.25-.11.36-.21.28-.25.56-.5.84-.75.08-.07.13-.16.17-.26.05-.1.07-.2.07-.31,0-.11-.02-.21-.07-.31-.03-.1-.09-.19-.17-.26-.15-.14-.35-.25-.57-.24l-.21.03c-.14.04-.25.11-.36.21h0Z"/>
    </g>
    <g>
      <path class="cls-2" d="M508.46,369.13c.58.66,1.17,1.32,1.75,1.97"/>
      <path class="cls-4" d="M507.89,369.7c.58.66,1.17,1.32,1.75,1.97.13.15.38.24.57.24s.43-.09.57-.24.25-.35.24-.57-.09-.4-.24-.57c-.58-.66-1.17-1.32-1.75-1.97-.13-.15-.38-.24-.57-.24s-.43.09-.57.24-.25.35-.24.57.09.4.24.57h0Z"/>
    </g>
    <g>
      <path class="cls-2" d="M404.42,363.87c.22.44.44.88.66,1.32"/>
      <path class="cls-4" d="M403.72,364.27c.22.44.44.88.66,1.32.09.17.3.32.48.37.19.05.45.03.62-.08s.32-.28.37-.48l.03-.21c0-.15-.04-.28-.11-.41-.22-.44-.44-.88-.66-1.32-.09-.17-.3-.32-.48-.37-.19-.05-.45-.03-.62.08s-.32.28-.37.48l-.03.21c0,.15.04.28.11.41h0Z"/>
    </g>
    <g>
      <path class="cls-2" d="M424.7,340.4c.33.37.66.73.99,1.1"/>
      <path class="cls-4" d="M424.13,340.97c.33.37.66.73.99,1.1.07.08.16.13.26.17.1.05.2.07.31.07.11,0,.21-.02.31-.07.1-.03.19-.09.26-.17.14-.15.25-.35.24-.57l-.03-.21c-.04-.14-.11-.25-.21-.36-.33-.37-.66-.73-.99-1.1-.07-.08-.16-.13-.26-.17-.1-.05-.2-.07-.31-.07-.11,0-.21.02-.31.07-.1.03-.19.09-.26.17-.14.15-.25.35-.24.57l.03.21c.04.14.11.25.21.36h0Z"/>
    </g>
    <g>
      <path class="cls-2" d="M572.71,375.71c.48-.04.95-.07,1.43-.11"/>
      <path class="cls-4" d="M572.71,376.51c.48-.04.95-.07,1.43-.11.22-.02.41-.08.57-.24.14-.14.24-.37.24-.57s-.08-.42-.24-.57-.36-.25-.57-.24c-.48.04-.95.07-1.43.11-.22.02-.41.08-.57.24-.14.14-.24.37-.24.57s.08.42.24.57.36.25.57.24h0Z"/>
    </g>
    <g>
      <path class="cls-2" d="M593.65,351.7c.4.77.8,1.53,1.21,2.3"/>
      <path class="cls-4" d="M592.95,352.1c.4.77.8,1.53,1.21,2.3.2.37.75.52,1.1.29.38-.25.5-.7.29-1.1-.4-.77-.8-1.53-1.21-2.3-.2-.37-.75-.52-1.1-.29-.38.25-.5.7-.29,1.1h0Z"/>
    </g>
    <g>
      <polyline class="cls-2" points="594.97 388.97 594.2 391.93 594.2 391.93"/>
      <path class="cls-4" d="M594.19,388.76c-.22.87-.45,1.73-.67,2.6l-.09.36c-.11.41.13.89.56.99s.88-.13.99-.56c.22-.87.45-1.73.67-2.6l.09-.36c.11-.41-.13-.89-.56-.99s-.88.13-.99.56h0Z"/>
    </g>
    <g>
      <path class="cls-2" d="M647.59,384.04c-.33.84-.66,1.68-.99,2.52"/>
      <path class="cls-4" d="M646.81,383.83c-.33.84-.66,1.68-.99,2.52-.07.18-.01.46.08.62s.29.33.48.37c.21.05.44.04.62-.08s.29-.28.37-.48c.33-.84.66-1.68.99-2.52.07-.18.01-.46-.08-.62s-.29-.33-.48-.37c-.21-.05-.44-.04-.62.08s-.29.28-.37.48h0Z"/>
    </g>
    <g>
      <path class="cls-2" d="M644.96,390.4c.37-.51.73-1.02,1.1-1.53"/>
      <path class="cls-4" d="M645.66,390.81c.37-.51.73-1.02,1.1-1.53.11-.16.13-.44.08-.62s-.2-.39-.37-.48c-.19-.1-.41-.15-.62-.08l-.19.08c-.12.07-.22.17-.29.29-.37.51-.73,1.02-1.1,1.53-.11.16-.13.44-.08.62s.2.39.37.48c.19.1.41.15.62.08l.19-.08c.12-.07.22-.17.29-.29h0Z"/>
    </g>
    <g>
      <path class="cls-3" d="M666.56,349.07c-.22.02-1.59.15-2.41,1.32-.42.6-.52,1.21-.55,1.53l2.96-2.85Z"/>
      <path class="cls-4" d="M666.56,348.26c-1.4.11-2.77.88-3.38,2.18-.22.48-.34.95-.39,1.47-.04.42.4.82.81.81.47-.02.77-.35.81-.81,0-.04,0-.07.01-.11.01-.13-.04.25,0,.05.02-.1.04-.21.07-.31.02-.06.03-.11.05-.17.02-.05.06-.13.07-.18l-.04.1s.03-.06.04-.09c.03-.06.06-.13.1-.19.04-.06.08-.13.12-.19.02-.03.04-.06.06-.08.05-.07.04-.05-.04.05.09-.07.15-.18.24-.26.07-.07.15-.13.22-.19-.18.17-.06.05,0,0,.04-.03.09-.06.13-.09.08-.05.17-.1.26-.15.04-.02.08-.04.11-.05.15-.07-.18.07-.05.02.15-.06.31-.11.47-.15.11-.03.23-.05.35-.07.18-.03-.25.03-.07,0,.03,0,.05,0,.08,0,.42-.03.83-.35.81-.81-.02-.41-.36-.84-.81-.81h0Z"/>
    </g>
  </g>
  <g>
    <path class="cls-6" d="M706.27,336.52l-561.41-2.65c-.01,1.19-.03,2.36-.03,3.54,0,155.04,125.69,280.73,280.73,280.73s280.72-125.69,280.72-280.73c0-.3,0-.59-.01-.89ZM355.35,352.62c.13-.63.66-1.15,1.25-1.4.61-.26,1.28-.3,1.93-.23.32.03.68.09.9.33.13.13.19.3.24.46.36.98.63,2,.81,3.03.08.37.13.77,0,1.13-.46,1.33-2.47,1.47-3.36.57-.79-.82-2-2.74-1.78-3.89ZM341.49,367.32c.24-.14.54-.15.82-.17.57-.03,1.17-.04,1.66.24.59.33.9,1.11.71,1.76-.01.06-.04.14-.09.18-.06.06-.15.08-.23.09-.37.05-.76.05-1.13,0l-.28-.13c-.46-.3-.91-.59-1.38-.89-.15-.1-.33-.21-.4-.39-.1-.27.08-.57.32-.71ZM329.17,444.07c0-.08.01-.18.08-.23.05-.05.12-.06.18-.08.66-.12,1.33-.08,1.96.12.08.01.15.04.19.1.04.05.04.12.04.18,0,.37-.3.7-.64.85-.35.14-.75.14-1.12.13-.37-.03-.84-.15-.88-.53l.44.35c-.27-.18-.27-.57-.24-.89ZM319.51,398.98c.05-.18.1-.36.15-.53.08-.24.17-.52.41-.62.21-.08.45.01.63.15.3.22.52.57.54.94.01.37-.18.76-.53.91l-.03-.08c-.24.05-.5.09-.73.04-.24-.05-.48-.23-.5-.49-.01-.1.03-.22.05-.33ZM310.27,411.76c.03-.1.05-.23.14-.28.06-.04.14-.04.22-.03.41.08.79.3,1.06.61.06.08.12.15.15.24.08.3-.18.61-.48.68s-.61,0-.9-.09l.27.43c-.27-.12-.44-.4-.49-.68-.05-.3-.01-.59.03-.88ZM297.67,386.11c.05-.27.24-.48.46-.63.23-.18.5-.33.79-.35.18-.01.36.05.5.17,0-.01.01-.03.01-.04l.05.09s-.04-.04-.06-.05c-.12.55-.23,1.09-.35,1.65-.01.06-.04.13-.09.17-.05.04-.12.04-.18.04-.3-.03-.59-.1-.82-.28-.22-.18-.37-.48-.31-.76ZM295.65,429.8c.33-.01.67.13.98.27.27.12.55.24.82.36-.09.45-.52.77-.95.86-.35.08-.71.04-1.06-.01.13.06.27.13.41.18l-.72-.23c.1.03.21.03.31.05-.1-.06-.21-.13-.3-.21-.21-.19-.33-.46-.28-.73.08-.33.44-.54.79-.54ZM291.97,351.33c.14.05.27.17.39.28.53.5.93,1.13,1.17,1.82.21.58.27,1.28-.12,1.74-1.07,1.26-2.62-.49-3.16-1.35-.7-1.13.12-3.12,1.71-2.49ZM288.45,430.07c.19-.23.54-.3.84-.23.3.05.57.22.82.37.06.04.13.08.15.15.04.09-.01.18-.06.27-.36.54-1.11.76-1.73.54.03.04.05.09.08.13l-.21-.17s.09.01.13.04c-.19-.36-.28-.8-.03-1.11ZM273.51,347.62c0-.09.01-.18.06-.26.04-.05.09-.09.15-.13,1.09-.67,2.36-1.37,3.61-1.07,1,.23,1.78,1.11,2.13,2.07.36.97.36,2.02.28,3.05-.01.14-.03.28-.12.39-.08.13-.23.18-.37.23-1.17.41-2.49.58-3.65.12-1.78-.7-2.23-2.68-2.1-4.41ZM175.5,362.7c.05-.35.14-.71.37-.98.26-.31.67-.45,1.06-.54.41-.1.85-.17,1.26-.04.55.17.93.66,1.26,1.13.53.76,1.07,1.62.94,2.54-.04.31-.17.62-.4.82-.23.21-.54.3-.85.35-2.43.39-3.98-.81-3.65-3.28ZM149.14,356.57c-.19-.5-.21-1.06-.23-1.61-.05-2.38-.12-4.83.59-7.12.04-.14.09-.3.22-.39.12-.09.28-.09.44-.1.54,0,1.08-.01,1.62-.03.49,0,1,0,1.43.24.37.21.63.59.86.95.32.5.64,1.02.98,1.52.17.27.35.54.44.85.12.32.13.67.13,1,.01,1.75-.32,4.77-1.8,5.99-1.38,1.13-4.05.28-4.68-1.31ZM162.68,408.97c-.97.79-2.02,1.42-3.16,1.95-1.17.54-1.79.48-2.29-.84-.43-1.09-.84-2.18-1.25-3.27-.19-.5-.39-1.02-.53-1.53-.35-1.28-.31-2.81.67-3.71.68-.63,1.69-.81,2.62-.71.68.08,1.38.31,1.86.8.19.21.35.45.5.7.72,1.15,1.43,2.28,2.15,3.43.28.44.57.91.55,1.43,0,.72-.57,1.3-1.12,1.76ZM181.23,459.13c-.57.64-1.31,1.08-2.1,1.39-.9.35-2.1.46-2.68-.32-.35-.45-.35-1.08-.45-1.65-.17-.95-.66-1.84-1.38-2.49-.14-.13-.31-.26-.4-.45-.06-.13-.09-.28-.09-.44-.13-3.13,3.84-4.06,6.05-2.59,2.04,1.34,2.67,4.7,1.04,6.54ZM187.61,352.64c-.81.67-3.39.14-3.95-.76-.73-1.15-.14-2.96,1.08-3.49.82-.35,1.84-.15,2.47.49.04.5.33.94.49,1.42.17.52.15,1.07.15,1.61-.01.27-.04.57-.24.73ZM200.23,425.02c.03.43-.05.86-.24,1.26-.05.09-.12.19-.21.26-.09.06-.21.06-.32.08-.53.04-1.09.05-1.51-.27-.04-.48-.04-1.03.32-1.34.37-.33.94-.23,1.42-.12.18.04.36.08.54.13,0-.05.01-.09.01-.13l.15.17c-.05-.01-.1-.03-.17-.04ZM199.02,419.08c-.5-.82-.32-2.32-.4-3.23-.04-.41-.05-.89.24-1.16.17-.15.39-.21.59-.23.57-.04,1.12.18,1.64.4.45.19.9.37,1.35.57.77.32,1.6.68,2.09,1.38.48.68.53,1.65.14,2.4-.39.75-1.17,1.26-2.01,1.34-1.07.1-3.05-.48-3.65-1.46ZM202.91,473.47c-.33-.55-.31-1.24-.28-1.88.01-.18.03-.36.12-.5.14-.24.45-.32.72-.39.72-.15,1.57-.28,2.13.22.09.08.17.17.24.27,1.95,2.52-1.39,4.81-2.92,2.28ZM209.96,489.75c-.77.08-1.56.15-2.33.23-.46.05-.97.09-1.38-.13-.85-.43-1.65-1.79-1.93-2.68-.24-.8-.77-2.83-.23-3.53.15-.21.41-.31.66-.4.94-.35,1.97-.72,2.95-.46,1.25.31,2.07,1.55,2.43,2.78.36,1.25.37,2.56.7,3.81-.17.28-.54.35-.86.37ZM213.37,405.69c-1.46,1.8-4.24-.23-4.71-2.02-.24-.91.21-1.82.76-2.52.79-1.02,2.13-1.04,3.34-.9.09.01.18.03.26.09.06.05.1.14.14.22.14.35.3.7.44,1.03.19.45.39.91.48,1.39.17.95-.09,1.97-.7,2.72ZM223.15,351.45c-.09.08-.21.13-.32.18-1.39.57-2.98.89-4.02-.46-.63-.82-.62-1.88-.1-2.76.5-.88,1.48-1.47,2.5-1.4,1.33.09,2.14,1.83,2.29,3.01.06.52.08,1.12-.35,1.43ZM231.48,526.99c-.27.61-.8,1.06-1.31,1.48-.26.21-.52.43-.76.63-.21.17-.4.33-.64.44-.39.18-.84.17-1.26.08-2.11-.4-4.28-2.65-3.29-4.78.1-.22.21-.44.39-.59.18-.15.44-.23.67-.3,1.43-.36,2.94-.37,4.37-.03.33.08.68.18.98.37.89.53,1.28,1.75.86,2.69ZM249.66,473.3c-.15.21-.37.35-.58.49-.72.49-1.55.99-2.41.85-1.55-.23-2.09-2.64-1.42-3.85.26-.45.73-.75,1.22-.88.5-.13,1.03-.12,1.55-.06.27.03.55.06.79.22s.39.43.52.67c.23.4.45.8.55,1.25.09.45.05.95-.22,1.31ZM275.79,526.79c-.53.22-1.15.26-1.67.01-.68-.33-1.03-1.09-1.34-1.8-.19-.46-.39-.91-.58-1.37-.32-.75-.77-1.76-.5-2.6.3-.88.93-.77,1.74-.79.97-.03,2.15-.14,3.07.3,2.71,1.3,1.74,5.24-.71,6.25ZM289.79,556.31c-.03.46-.06.94-.14,1.4-.13.94-.44,1.98-1.28,2.42-.54.28-1.2.24-1.78.04-.57-.21-1.06-.58-1.55-.95-1.56-1.22-2.49-2.62-1.92-4.68.26-.97,1.04-1.86,2.04-1.89,1.13-.04,2,.95,3.01,1.43.45.21.97.33,1.28.71.35.4.36.99.33,1.52ZM295.31,500.65c.05.68-.49,1.38-1.19,1.43-.37.03-.82-.23-.76-.61.04-.21.23-.36.31-.55.1-.27.01-.63.22-.82.18-.18.49-.12.72,0,.27.13.49.33.7.55,0-.03.01-.06,0-.09l.27.44c-.08-.13-.18-.23-.27-.35ZM313.22,495.08c0-.09,0-.17.04-.24.05-.09.15-.14.26-.18.36-.13.77-.14,1.16-.14.68.01,1.4.06,1.98.43.58.36.97,1.15.67,1.76-.05.1-.12.19-.14.31-.04.12-.01.24-.04.36-.03.13-.1.24-.18.35-.63.82-2,1.12-2.9.54-1.07-.68-.88-2.09-.85-3.18ZM327.1,539.55l-4.03-10.56-8.45-4.66,8.93-2.69,4.78-13.42,3.72,11.47,6.61,3.67-8.36,4.48-3.19,11.72ZM341.9,585.89c-.61,1.62-2.09,1.12-3.54.59-.71-.27-1.43-.66-1.78-1.33-.27-.52-.3-1.11-.28-1.69,0-.76.04-1.53.1-2.31.01-.15.04-.33.15-.44.12-.09.28-.1.43-.1,1.28,0,2.65.1,3.62.91,1,.84,1.78,3.07,1.3,4.35ZM352.85,587.44c-.05.44-.13.91-.46,1.19-.19.15-.45.22-.71.26-.97.13-1.98-.1-2.81-.64l-.48-.04c-.09-.88-.1-1.75-.01-2.63.09-1.08.45-2.31,1.46-2.72,1.02-.43,2.23.31,2.72,1.31.48,1,.41,2.16.3,3.27ZM301.1,484.31c-33.87,0-61.32-26.73-61.32-59.7,0-17.73,7.92-33.65,20.52-44.57-2.34,6.43-3.61,13.35-3.61,20.55,0,34.11,28.41,61.76,63.43,61.76,13.22,0,25.49-3.94,35.65-10.67-10.14,19.36-30.81,32.63-54.67,32.63ZM359.84,492.12c-3.4,4.06-4.62-3.63-3.13-5.77,1.06-1.51,4.17-.93,4.71.68.52,1.49-.63,3.95-1.58,5.09ZM366.72,546.38c-.03.45-.06.93-.35,1.29-.28.35-.75.49-1.2.52-1.08.06-2.16-.52-2.72-1.46-.55-.93-.54-2.16.03-3.09l-.1.09c.46-.68,1.3-1.08,2.13-1.02.81.05,1.58.58,1.95,1.31.35.72.31,1.56.27,2.36ZM365.02,391.6c-.93-1.51,1.51-2.19,2.2-.91.81,1.48-1.42,2.16-2.2.91ZM372.34,356.71c1.12-.9,2.91-.85,3.98.12.17.13.31.28.4.46.21.36.23.8.24,1.21.05,1,.05,2.14-.63,2.87-.21.22-.45.37-.68.54-.3.19-.61.4-.94.52-.91.28-2-.23-2.36-1.12-.1-.24-.14-.52-.19-.79-.21-1.29-1.02-2.87.18-3.81ZM385.79,403.84l3.77-10.86,3.62,8.55,7.24,3.86-8.1,4.16-3.9,11.92-3.08-11.44-9.92-1.84,10.37-4.35ZM378.23,538.91c-.54,1.06-1.78,1.7-2.95,1.55-1.17-.17-2.19-1.12-2.42-2.29l-.53-.28c-.13-1.15.53-2.33,1.55-2.89,1.02-.55,2.33-.46,3.31.17.21.13.39.28.55.45.82.86,1.03,2.24.49,3.3ZM382.99,456.27c-.55-.09-.93-.66-1-1.21-.06-.55.1-1.11.26-1.65.1-.35.22-.68.32-1.03.12-.39.24-.8.54-1.07.59-.54,1.52-.33,2.23.03.43.23.89.59.84,1.07-.01.27-.19.49-.28.73-.22.62.08,1.31-.13,1.92-.24.67-.99.94-1.74.94-.32.19-.67.33-1.03.27ZM385.22,495.8c-1.15-1.16-1.7-6.25-.35-7.24.27-.19.62-.21.94-.19,2.2.13,4.25,1.74,4.87,3.86.12.37.18.77.18,1.17-.01,2.72-3.65,4.43-5.64,2.4ZM392.56,517.49c-.46.33-1.08.41-1.64.3l-.23-.18c.36-.81.27-1.98,1.09-2.32.53-.21,1.17.17,1.34.71.17.55-.1,1.16-.57,1.49ZM405.24,576.81c-.57,2.86-5.14,3.35-6.89,1.24-.82-1.02-.97-2.9-.31-4.01.35-.59,2.34-2.96,2.95-3.16.66-.21,1.31.23,1.86.64.54.4,1.07.81,1.61,1.22.19.15.4.31.54.53.21.31.24.7.27,1.07.06.82.13,1.65-.03,2.46ZM413.36,435.84c-.62.09-1.06-.57-1.26-1.15-.17-.45-.3-.94-.18-1.4.1-.48.52-.9.99-.88.31.03.57.31.62.61l.05-.28c.36,1,.28,2.16-.22,3.1ZM415.91,424.5c-.52.85-1.46,1.43-2.45,1.49l-.37-.26c-.93-.77-1.21-2.22-.66-3.28s1.88-1.67,3.05-1.38c.17.04.33.1.46.22.09.09.15.22.19.33.39.93.3,2.02-.23,2.87ZM425.63,567.19c-.14.15-.35.23-.52.35-.41.26-.64.72-.97,1.07-.75.77-2.05.93-2.94.33l.08-.13c-.63-.46-1.33-1.07-1.28-1.87.03-.24.13-.49.24-.72.59-1.08,1.73-1.92,2.96-1.92s2.46.95,2.58,2.18c.03.24,0,.53-.17.71ZM419.55,528.83c-.15-2.52,1.07-2.78,3.27-2.31.4.09.81.22,1.09.5,1.56,1.64.45,7.06-2.59,5.14-1.13-.71-1.69-2.06-1.78-3.34ZM435.8,471.68c.35-1.15.91-2.45,2.07-2.73,1.09-.27,2.18.5,2.95,1.31.63.67,1.2,1.43,1.46,2.32s.13,1.92-.49,2.6c-.75.81-2,.93-3.1.91-.37-.01-.77-.03-1.11-.21-.76-.4-.93-1.4-1-2.28v-.44c-.3.21-.73-.06-.85-.41-.13-.35-.03-.73.08-1.08ZM437.52,575.25c.21-.66.82-1.13,1.49-1.33.66-.21,1.37-.15,2.05-.05,1.21.17,2.4.53,3.49,1.04,1.93.91,2.54,3.79.41,4.73-2.14.94-4.92-.05-6.42-1.62-.72-.75-1.35-1.79-1.03-2.77ZM449.81,602.71c-.15.28-.41.49-.62.73-.52.61-.64,1.47-1.21,2.02-.55.55-1.39.67-2.18.7-.95.04-1.98-.08-2.68-.73-1.08-1.03-1.35-3.84-1.46-5.27-.18-2.23.59-3.77,3-3.58.55.04,1.11.08,1.67.12.39.04.77.06,1.13.21.36.14.68.41.95.7,1.11,1.15,1.69,2.77,1.57,4.35-.03.27-.06.53-.19.76ZM463.2,555.87l-4.6,14.67-6.08-15.33-16.77-4.93,15.29-5.59,6.11-18.94,6.76,16.14,13.19,4.73-13.9,9.25ZM451.58,430.81c.21-.67.66-1.3,1.33-1.53.67-.23,1.52.06,1.76.72.13.36.08.76.01,1.13-.12.76-.23,1.52-.35,2.29l-.26.17c-.63,0-1.25.01-1.87.01-.22,0-.46,0-.62-.17-.13-.13-.14-.33-.15-.53-.04-.7-.06-1.42.14-2.1ZM462.27,467.89c.68-.91,1.88-1.42,3.01-1.29,1.13.14,2.16.9,2.63,1.96.19.44.27,1.02-.06,1.37-.23.24-.58.31-.91.37-.88.14-1.78.28-2.64.1-.88-.18-1.71-.76-1.93-1.62l-.39.18c-.13-.36.06-.76.3-1.07ZM478.9,452.69h.08c-.32-.85-.63-1.71-.95-2.56-.23-.62-.46-1.25-.43-1.91.03-.66.37-1.34,1-1.56.57-.19,1.19.03,1.71.31,1.2.62,2.27,1.47,3.32,2.31.67.54,1.42,1.28,1.24,2.13-.12.52-.57.89-1.06,1.07-.49.18-1.03.19-1.56.19-1.09.01-2.19.03-3.28.03.01.06.04.12.05.17l-.13-.17ZM486.35,481.65c-.04.31-.12.62-.32.85-.22.24-.55.36-.89.45-.75.22-1.73.35-2.16-.3-.13-.18-.18-.41-.23-.63-.19-.8-.4-1.6-.59-2.4l-.26-.14c-.18-.41.05-.93.43-1.17.37-.24.85-.28,1.3-.22,1.62.26,2.91,1.92,2.73,3.56ZM484.43,505.58c-.82.36-1.88-.09-2.31-.9l.73-.22c-.37-.37-.75-1-.36-1.37.1-.1.26-.15.4-.19.73-.19,1.64-.17,2.13.41.61.68.24,1.91-.59,2.27ZM489.45,494.4c-.01.35-.04.7-.17,1.02-.15.39-.45.68-.76.94-1.91,1.57-8.75,2.85-7.12-1.47.91-2.41,6.92-7.38,7.99-2.64.15.71.12,1.43.06,2.15ZM505.12,598.75c-.28.32-.32.77-.44,1.19-.52,1.89-2.5,2.91-4.29,3.71-3.45,1.53-6.14-1.52-6.52-5.02-.43-3.93,5.09-3.62,7.69-3.54.72.03,1.49.06,2.13.43.85.48,1.29,1.44,1.67,2.33.06.14.13.28.09.43-.03.21-.21.33-.33.49ZM505.21,545.07c-.15.55-.35,1.15-.79,1.53-.54.48-1.33.53-2.04.5-2.91-.05-5.58-3.94-2.58-6.14.19-.14.41-.26.53-.46.09-.17.09-.39.21-.55.13-.17.33-.23.54-.28,1.21-.3,2.47-.37,3.71-.26.63.88.97,1.95.94,3.03-.01.9-.27,1.78-.53,2.64ZM512.43,560.73c-.44.33-1.02.35-1.57.36-2.06.03-4.25-.44-3.68-2.82.22-.94,1-1.73,1.24-2.71.18-.84-.23-2.32.62-2.86.3-.18.66-.19.99-.21.46,0,.93-.01,1.39-.03.26,0,.54,0,.76.15.4.27.36.85.31,1.33-.13,1.21-.05,2.45.23,3.63.13.54.31,1.08.32,1.64.01.57-.17,1.16-.61,1.51ZM535,537.08c-.76-.21-1.61-.55-1.83-1.3-.17-.55.08-1.17.5-1.56.41-.4.97-.61,1.52-.76.14-.04.28-.06.41-.14.31-.21.39-.62.5-.98.35-1.07,1.38-1.84,2.47-2,.85-.13,2.42-.09,2.92.72.23.37.21.84.17,1.28-.08.93-.14,1.86-.22,2.78-.03.26-.04.52-.14.76-.14.33-.43.58-.73.79-1.6,1.07-3.72.9-5.58.41ZM548,572.88c-.31.54-.66,1.06-1.04,1.53-.49.61-1.06,1.15-1.76,1.48-.7.32-1.53.41-2.24.09-.77-.36-1.26-1.15-1.58-1.95-.61-1.53-.72-3.3-.1-4.84.09-.24.22-.49.4-.67,1.31-1.33,3.98.67,5.19,1.26.61.28,1.28.64,1.49,1.28.21.59-.05,1.26-.35,1.82ZM557.07,507.05c-.05.12-.1.23-.18.32-.08.09-.18.14-.27.21-.26.19-.46.44-.73.59-.48.27-1.06.21-1.61.14-.7-.09-1.4-.18-2.11-.27-1.56-.21-1.47-1.8-1.16-3.09.22-.95,1.09-1.65,2.02-1.98.59-.21,1.25-.3,1.88-.19.73.1,1.43.48,1.95,1.02.31.32.55.73.63,1.17.14.71-.14,1.42-.41,2.09ZM577.32,503.66c-.12-.22-.09-.49-.06-.73.04-.37.1-.79.4-1,.68-.52,1.74.27,2.43.4.81.14,1.73-.17,2.41.41.67.57.61,1.61.43,2.47-.1.45-.21.9-.32,1.34-.12.43-.24.85-.54,1.17-.49.58-1.35.7-2.09.53-.37-.08-.75-.24-.97-.55-.31-.43-.24-.99-.28-1.52-.08-.79-.44-1.55-1.03-2.09-.14-.13-.3-.26-.37-.43ZM581.83,547.19c-1-.1-2.07-1.12-2.78-1.76-.97-.89-1.09-1.69-.79-2.95.17-.68.36-1.38.75-1.98.39-.59.99-1.08,1.7-1.16.32-.04.66.01.97.06.68.09,1.37.21,1.95.57.18.13.36.27.46.46.1.21.14.44.15.67.14,1.56.06,6.35-2.41,6.09ZM596.75,466.86c-.13.39-.37.73-.61,1.07-.35.52-.71,1.02-1.06,1.53-.09.12-.18.24-.3.33-.14.12-.32.18-.49.23-.98.32-2.38.09-3.08-.75-.52-.63-.46-1.53-.36-2.34.03-.13.04-.26.09-.39.09-.18.24-.32.4-.46.54-.46,1.11-.95,1.8-1.15.55-.15,1.13-.12,1.7-.06.7.05,1.48.18,1.83.79.21.36.19.81.06,1.2ZM618.65,531.63c-.1.45-.23.93-.5,1.31-.37.53-.99.82-1.6,1.04-1.11.4-3.19.98-4.3.32-.91-.57-.98-2.05-.93-2.98.04-.58.08-1.15.12-1.73.03-.4.05-.82.19-1.21.26-.71.9-1.25,1.62-1.51.72-.27,1.51-.28,2.27-.18.66.08,1.31.26,1.82.68.31.27.54.62.76.97.33.53.67,1.08.76,1.7.06.53-.06,1.06-.21,1.57ZM625.9,451.09c-.76,1.11-2.45,2.87-3.89,2.96-1.43.08-2.45-2.06-3.09-3.13-.31-.52-.33-1.15-.28-1.75.09-.93.37-1.88,1.03-2.52,1.03-1.02,2.71-1.04,4.12-.71.91.22,1.8.55,2.63.99.13.06.26.14.33.26.06.1.08.22.1.32.17,1.25-.23,2.54-.95,3.58ZM632.46,430.53c-.09-.13-.09-.31-.08-.46.1-1.3-.24-5.55,2.2-4.64.88.32,1.15,1.28,1.13,2.13,0,.58-.14,1.15-.33,1.69-.06.19-.53,1.6-.7,1.61-.61.04-1.2,0-1.79-.1-.17-.04-.35-.09-.44-.22ZM638.72,504.78c-.09.41-.23.84-.57,1.11-.39.32-.94.33-1.46.35-.86,0-1.82-.01-2.45-.61-.59-.54-.72-1.42-.76-2.22-.03-.4-.01-.85.27-1.15.1-.13.27-.23.31-.4.01-.08,0-.17.03-.24.04-.09.1-.14.18-.19.64-.49,1.39-.54,2.16-.59.36-.03,1.19-.26,1.52-.1,1.11.5.97,3.1.76,4.05ZM653.11,414.11c-.01.5-.04,1.04-.33,1.44-.21.27-.5.45-.79.62-.45.27-.91.54-1.38.82-.26.15-.53.31-.82.33-1.12.08-2.41-1.57-2.37-2.62.01-.62.44-1.19.79-1.66.43-.62.7-1.34,1.13-1.95.46-.63,1.28-1,2.05-.91.77.09,1.49.67,1.69,1.42.08.31.08.63.08.94,0,.53-.03,1.04-.04,1.56ZM659.2,460.21c-.09.93-.62,1.92-1.53,2.1-.64.12-1.31-.23-1.73-.75-.33-.41-.53-.94-.64-1.47-.21-.21-.4-.44-.53-.71-.15-.35-.15-.8.09-1.09.32-.36.88-.36,1.35-.31.49.05.98.12,1.46.21.37.06.77.14,1.06.39.45.39.54,1.06.48,1.64ZM666.26,468.49c-.63.72-1.71,1.24-2.68.98-1.79-.49-2.13-4.29-.1-4.35,1.22-.04,2.5-.08,3.59.46.62.31-.55,2.62-.81,2.91ZM669.3,368.39l-26.98,38.4c-.39.55-.84,1.07-1.35,1.52-1.04.93-2.64.88-3.61-.15l-5.91-6.29c-.5-.54-1.22-.81-1.96-.72-.26.04-.49.18-.67.36l-3.3,3.13c-.57.54-1,1.17-1.33,1.88l-3.03,6.9c-.08.17-.15.32-.26.48-1.11,1.75-8.35,13.24-10.6,16.81-.39.63-.85,1.2-1.4,1.7-10.27,9.21-27.88,37.89-32.44,45.45-.59.98-1.91,1.22-2.82.53t-.01-.01c-1.49-.98-2.86-1.73-4.1-2.24-1.03-.45-1.98-.75-2.86-.93-.27-.05-.53-.09-.77-.12-.23-.03-.45-.05-.67-.05-.52-.04-1-.03-1.46.05-.17.01-.32.04-.48.08-.23.05-.45.1-.66.18-.15.04-.3.09-.44.14-.28.12-.57.26-.82.4-.04.03-.08.04-.12.06-.24.14-.49.31-.71.49-4.11,3.14-5.02,10.41-7.56,10.82-5.71.93-20.37,29.28-23.07,36.47-.35.95-1.31,1.52-2.31,1.38l-.18-.04c-.58-.44-1.03-1.04-1.29-1.71-8.35-21.64-7.55-10.92-10.78-18.69-2.62-6.27-6.61-10.47-8.14-11.93-.41-.39-.71-.89-.84-1.44-1.15-4.79-6.69-27.88-7.47-30.04-.88-2.41-28.07-23.24-30.7-33.98-2.56-10.49-5.23-13.32-5.69-14.99l-1.08-5.06-.19-.89s-.01-.01-.03-.01c-.1-.05-.21-.08-.32-.1-.01,0-.03-.01-.04-.01s-.03,0-.04-.01-.03-.01-.04-.01h-.03c-.22-.04-.46-.03-.71,0-1.12.17-2.29.95-2.29.98h.04c-2.47,1.04-6.11,4.41-6.13,4.43-.86.89-1.73,1.76-2.59,2.65-3.88,4.48-7.77,8.97-11.65,13.45-.01.01-.03.03-.04.03-.3.18-.63.27-.97.27-.63,0-1.26-.33-1.6-.93l-20.95-36.3c-.61-1.06-1.08-2.19-1.35-3.38-.66-2.92-3.26-9.78-13.44-14.94-2.37-1.21-4.21-3.27-5.06-5.8-1.48-4.35-4.44-11.31-9.53-16.04-.43-.45-.84-.91-1.26-1.37l-9.78-12.73c-.05-.08-.04-.17.03-.21,0,0,.03-.03.08-.03.14,0,177.25,1.21,320.47,2.19.04.08.08.14.12.22l-11.43,17.52c-.84,1.3-2.01,2.34-3.35,3.1-5.96,3.36-10.07,9.08-10.07,9.08ZM678.24,384.48c-.14-.27-.17-.59-.18-.9-.05-.79-.1-1.6.09-2.36.19-.77.68-1.51,1.42-1.82.41-.17.86-.18,1.31-.15.33.01.66.05.97.18.39.18.7.49.99.81.39.41.8.86.89,1.43.08.44-.06.88-.21,1.3-.14.44-.31.9-.64,1.24-.9.9-3.86,1.75-4.64.27ZM688.96,419.61c-.1.15-.22.3-.37.4-.33.22-.76.15-1.16.14-.88-.03-1.8.18-2.59-.21-.64-.32-1.04-.95-1.42-1.57-.3-.5-.62-1.12-.32-1.64.41-.76,2.07-1.34,2.9-1.33.95,0,2.24.13,2.94.85.43.43.62,1.04.61,1.65-.01.61-.24,1.2-.58,1.7ZM698.7,381.02c-.17.68-.55,1.3-.99,1.86-.4.52-.89.99-1.49,1.24-.52.21-1.07.23-1.62.23-2.56.04-1.65-2.34-1.15-3.97.12-.37.24-.76.48-1.08.19-.24.45-.43.7-.61.53-.36,1.09-.71,1.73-.79.84-.1,1.71.33,2.14,1.07.36.61.4,1.37.22,2.05Z"/>
    <path class="cls-6" d="M563.78,475.09c-.17.01-.32.04-.48.08-.23.05-.45.1-.66.18-.15.04-.3.09-.44.14.03-.24.03-.5.04-.76,0-.1.01-.21.01-.31,0-.15.01-.32.01-.49.5.44,1,.81,1.51,1.16Z"/>
    <path class="cls-6" d="M459.92,407.08h-.01s-.03.01-.04,0c.03-.01.04-.01.05,0Z"/>
  </g>
  <g id="_Ялинки" data-name="Ялинки">
    <path class="cls-5" d="M321.23,164.73c-1.01,1.25-1.09,8.52-1.32,10.96-.59,6.46-5.05,10.67-4.6,10.96.5.33,4.54-6.06,5.7-5.48.8.4.16,4.01-1.53,6.8-.98,1.61-2.06,3.33-3.54,3.75-.14.04-.57.15-.62.41-.11.55,1.63.93,1.97,1.75.74,1.77-5.67,5.02-5.26,5.92.32.71,4.39-.82,4.82,0,.61,1.17-6.91,5.65-6.14,7.46.46,1.07,3.54.48,3.73,1.32.23,1.03-4.35,2.35-4.17,3.73.1.73,1.54,1.36,2.85,1.32,3.66-.13,5.98-5.49,6.36-5.26.29.17-.59,3.5-3.29,7.02-2.99,3.89-5.55,4.56-6.8,8.33-.6,1.81-.64,3.57-.22,3.73.38.15.89-1.14,2.41-1.75,1.04-.42,2.4-.47,2.63,0,.27.55-1.24,1.35-2.41,3.73-.38.76-.89,2.04-.66,2.19.64.41,5.7-8.36,8.33-7.46.99.34.13,2.37,0,2.63-4.35,8.39-11.03,14.1-12.51,14.57,0,0-.22.07-.21.12.04.28,5.63-.81,6.14.44.22.54-.71,1.06-1.97,3.29-.68,1.21-1.42,2.5-1.1,2.85.81.89,7.97-4.61,8.33-4.17.49.6-12.79,10.63-11.18,13.59.51.93,14.58-19.19,4.71-.19-1.86,3.58,2.26-3.2,2.96-2.88.7.32.3,4.98-2.85,7.46-1.18.93-2.66.96-2.63,1.32.05.61,4.15-.14,5.04,1.32,1.68,2.73-8.79,11.76-8.33,12.28.5.56,12.56-9.82,13.16-9.21.34.35-2.77,3.28-11.79,12.75-2.22,1.81,2.54,1.09,2.63,1.32.25.64,1.08,1.58-2.14,3.45-2.55,1.48-4.91,5.1-3.12,5.92,2.3,1.06,7.11.02,7.32.33.41.6-12.39,10.12-11.68,11.27.32.51,5.41-2.95,7.48-1.7.96.58-1.75,2.3-.82,4.66.65,1.64-1.62,3.2-2.96,3.29-1.12.07-1.84-.82-2.22-.49-.36.31-.18,1.49.49,2.06,1.4,1.17,4.64-.6,5.18-.9,2.91-1.6,2.85-3.17,5.02-3.54,1.48-.25,2.22.37,3.45-.33,1.11-.63,1.47-1.67,2.14-1.56.59.1.9,1.04.99,1.32.92,2.86-.94,23.64-1.48,29.44,1.86-.11,3.73-.22,5.59-.33-.27-12.03-.55-24.07-.82-36.1.52-.12,1.26-.2,1.89.16.75.44.99,1.3,1.07,1.56.76,2.41,5.17,6.85,9.79,7.56,2.42.38,4.95-.26,5.02-.9.05-.49-1.33-.83-3.62-1.89-3.16-1.46-8.03-4.27-7.65-5.67.16-.57,1.14-.76,1.48-.82,3.67-.7,6.7,4.12,8.06,3.29.67-.41.62-1.97.16-3.04-.59-1.39-1.78-1.69-5.59-3.86-3.26-1.86-3.33-2.17-3.29-2.3.14-.42,2.08-.46,3.86.16,2.99,1.05,3.97,3.41,5.51,2.96.46-.13,1.01-.53.99-.9-.06-1.1-4.98-.74-8.22-3.95-1.04-1.03-.96-1.49-.9-1.64.27-.78,2.36-1.14,4.03-.58,1.22.41,1.57,1.09,3.12,1.4.63.13,1.46.29,1.73-.08.5-.69-1.24-2.75-1.97-3.62-.43-.51-1.54-1.77-3.54-3.37-2.05-1.64-2.34-1.49-2.8-2.3-.76-1.37-.1-2.12-.82-4.19-.59-1.72-1.53-2.6-1.4-2.71.24-.2,2.89,3.22,7.4,6.08,1.19.76,3.54,2.24,4.03,1.73.55-.58-1.31-3.54-3.37-5.76-2.95-3.16-4.62-2.97-6.91-5.92-1.8-2.32-2.94-5.23-2.3-5.76.39-.33,1.47.3,3.62,1.56,1.8,1.05,2.62,1.76,4.28,2.22.59.16,1.93.54,2.14.16.24-.44-1.34-1.62-5.1-5.26-1-.97-1.6-1.58-2.22-2.55-.58-.92-1.85-2.91-1.15-4.36.27-.57.59-.51,1.32-1.56.64-.92.95-1.38.9-1.89-.1-1-1.38-.98-3.04-2.88-.35-.4-.67-.87-1.32-1.81-.56-.82-.76-1.18-.9-1.64-.13-.43-.35-1.42-.08-1.56.53-.27,2.16,3.18,3.37,2.88.66-.16,1.17-1.44.82-2.3-.57-1.41-3.16-1.04-3.37-2.06-.14-.7.91-1.77,2.06-1.97,1.87-.34,3.4,1.74,3.78,1.4.31-.28-.38-1.86-1.64-3.04-1.09-1.02-1.85-1.03-2.88-1.64-3.01-1.78-4.05-6.09-3.37-6.58.49-.36,1.82,1.37,2.63.9.71-.4.79-2.34-.08-3.54-.7-.96-1.46-.67-2.8-2.06-1.02-1.06-1.02-1.69-.99-1.97.01-.1.1-.75.49-.9.63-.25,1.48.93,3.78,3.12,1.79,1.7,2.16,1.84,2.38,1.73.42-.21.38-1.4,0-2.3-.45-1.05-1.39-1.76-2.63-2.71-.84-.64-1.38-.94-1.32-1.32.06-.36.64-.59,1.07-.66,1-.16,1.47.54,3.21,1.07.67.21,1.58.48,1.81.16.28-.39-.58-1.44-.82-1.73-.23-.29-1.23-1.44-3.12-2.22-.61-.25-.61-.17-.82-.33-.88-.65-.52-1.77-.99-3.86-.26-1.18-.48-2.14-1.23-3.04-.02-.03,0,0-1.4-1.48-.52-.55-.79-.83-1.07-1.23-.51-.72-.81-1.14-.74-1.64.08-.56.6-1.22,1.15-1.23.9-.02,1.22,1.75,3.21,4.6.79,1.13,1.65,2.37,1.97,2.22.41-.18.1-2.58-1.23-4.36-.5-.67-.64-.57-1.15-1.32-.56-.81-.81-1.64-1.32-3.29-.19-.62-.3-1.05-.16-1.56.04-.13.18-.63.58-.99.98-.87,2.32.19,3.29-.49.87-.61.89-2.24.58-3.29-.35-1.16-.95-1.11-1.97-2.55-.73-1.03-1.17-2.5-2.06-5.43-.02-.07-.15-.67-.41-1.89-.14-.65-.21-.98-.08-1.15.32-.45,1.48-.38,2.3.08,1.76.99,1.72,3.66,2.06,3.62.26-.03.57-1.76-.08-3.37-.22-.55-.64-1.13-1.48-2.3-.63-.87-1.09-1.46-1.23-1.64-1-1.3-1.36-2.8-2.06-5.76-.77-3.28-1.15-4.92-.82-6.17.24-.9.65-1.67.41-2.8-.05-.25-.42-.94-1.15-2.3-.49-.92-.77-1.4-1.15-1.4-.29,0-.5.27-.58.36Z"/>
    <path class="cls-5" d="M378.13,334.34c-.15-.33-.03-.67,0-.77.35-1.25.52-8.02.22-26.2-1.97,3.68-3.17,5.44-3.62,5.26-.29-.12-.26-1.07.11-2.85.65-2.3.52-3.01.22-3.18-1.53-.85-8.39,12-12.39,10.74-1.35-.42-2.31-2.47-1.86-3.18.38-.62,1.57.14,3.4-.33,1.91-.49,3.05-1.94,4.71-4.06.8-1.02,1.89-2.4,1.53-2.85-.26-.33-1.42.03-3.73.77-1.61.51-2.32.82-2.41.66-.03-.05-.05-.25,1.97-1.86,1.96-1.55,2.19-1.53,3.07-2.3,1.51-1.32,1.05-1.58,2.96-3.62,1.48-1.58,2.19-1.89,2.52-3.07.23-.83.29-2.15-.33-2.52-.95-.57-3.19,1.26-4.5,2.74-1.66,1.89-1.4,2.75-3.07,4.6-1.29,1.44-3.47,3.16-4.28,2.63-.62-.4-.4-2.1.22-3.29.62-1.19,1.27-1.15,3.29-2.96,1.69-1.51,1.39-1.66,2.96-2.96,1.22-1,1.68-1.14,2.19-1.97.56-.9.28-1.17.88-2.74.28-.73.72-1.87,1.64-2.96.85-1.01,1.15-.83,1.97-1.86.74-.94,1.09-1.83,1.32-2.41.36-.93.46-1.61.66-2.96.23-1.53.1-1.7,0-1.75-.34-.2-1.15.48-1.64,1.1-.9,1.12-.58,1.79-1.21,3.18-.79,1.76-2.27,2.82-3.07,3.4-1.27.91-1.45.61-2.3,1.43-.89.85-1.01,1.49-2.19,2.52-.59.52-1.22,1.07-1.64.88-.41-.19-.56-1.06-.33-1.75.48-1.41,2.26-1.15,2.96-2.63.34-.73.36-1.75-.11-2.41-.93-1.3-3.48-.78-3.51-1.1-.02-.26,1.64-.73,4.28-1.75.4-.16.83-.33,1.1-.77.5-.82-.26-1.51.11-2.3.47-1.01,2-.55,2.74-1.75.04-.07.49-.82.22-1.64-.26-.8-1.11-1.36-1.86-1.32-.54.03-.89.36-1.53.99-1.26,1.22-1.32,2.03-2.08,2.19-.57.12-1.32-.17-1.53-.66-.14-.31-.14-.86,2.08-3.51,1.6-1.9,1.85-1.92,2.63-3.07.99-1.47.72-1.65,1.64-2.85.89-1.14,1.98-2.07,2.52-2.52,1.28-1.07,1.81-1.26,1.97-1.97.2-.87-.28-1.97-.88-2.08-.3-.06-.62.13-2.08,1.97-1.38,1.73-1.7,2.32-2.63,3.07-.79.64-1.37,1.11-2.08.99-1.05-.18-1.89-1.58-1.64-2.63.11-.49.51-.84,1.32-1.53.74-.64,1.08-.77,2.08-1.53,0,0,.56-.43,1.32-1.1.58-.51,4.58-4.04,4.71-8.55.01-.47.05-1.68-.44-1.86-.7-.26-2.05,1.75-2.19,1.97-.78,1.19-.78,1.78-1.64,3.84-.87,2.07-1.31,3.11-1.97,3.18-.92.1-2.14-1.33-1.97-2.41.13-.83.97-.81,1.75-2.08.56-.9.4-1.34.88-2.74.32-.95.69-1.6,1.43-2.85,1.8-3.08,2.75-3.85,3.95-6.47.57-1.24.92-2.3.44-3.07-.02-.04-.43-.67-.99-.66-.3,0-.72.2-1.97,2.52-.79,1.46-.91,1.9-1.53,2.41-.15.12-1.2.98-1.75.66-.75-.43-.38-2.92.55-4.82.55-1.14.84-1.12,2.74-3.73.89-1.22.78-1.16,1.97-2.85,1.55-2.19,2.98-4.05,2.96-4.06-.01-.01-1.2,1.43-1.21,1.43-.01,0,1.89-1.73,2.19-4.17.03-.25.2-1.61-.33-1.86-.45-.21-1.28.42-1.75,1.1-.91,1.29-.19,2.25-.99,4.06-.27.62-.73,1.66-1.75,1.97-1.07.33-2.49-.25-2.74-1.1-.26-.87.73-1.9,1.75-2.96.77-.8,1.19-.98,1.75-1.86.36-.56.32-.7.77-1.43.59-.95.82-.99,1.32-1.75.32-.5.84-1.31.99-2.41.08-.65-.06-.61-.11-2.41-.03-1,.01-1.27-.11-1.32-.31-.1-.99,1.45-2.63,3.62-.99,1.31-1.28,1.46-1.53,1.43-.7-.1-1.4-1.67-.99-2.85.43-1.23,1.67-.9,2.96-2.52.15-.19,1.26-1.62,1.32-3.51,0-.3-.03-.79-.11-1.75-.11-1.37-.19-1.75-.22-2.19-.18-2.74,1.62-4.86,2.52-5.92.34-.4.67-.73.99-.66.41.09.58.8.88,2.19.43,1.98.64,2.97.66,3.07.53,3.83.24,3.85.66,5.81.35,1.67.6,2.83,1.43,4.17.74,1.19,1.5,1.82,1.32,2.08-.21.3-1.54-.08-2.52-.88-1.1-.89-1.72-2.25-1.64-2.3.06-.04.67.53.55.88-.11.32-.71.14-.99.44-.61.67.88,3.22,2.19,4.93.9,1.18,1.4,1.56,1.97,2.74.46.95,1.1,1.91.77,2.3-.3.34-1.16.06-1.53-.11-.92-.42-1.11-1.38-1.32-1.32-.23.07-.22,1.2.11,2.52.26,1.02.57,1.6,1.75,3.95.93,1.84,1.39,2.78,1.1,3.62-.13.36-.42.88-.77.88-.41,0-.6-.73-1.53-2.63-.38-.78-.2-.34-.99-1.86-.88-1.7-1.09-2.2-1.43-2.19-.45,0-.78.93-.88,1.21-.19.55-.59,1.97.22,4.28.49,1.4,1.13,2.28,2.41,4.06,1.27,1.76,1.33,1.51,2.3,2.96,1.25,1.87,1.19,2.34,2.19,3.29,1.06,1,1.63.95,1.97,1.75.53,1.22-.07,3.01-.88,3.18-.66.14-1.36-.81-2.3-2.08-.77-1.05-1.43-2.23-2.52-4.17-.16-.28-.53-.94-1.21-1.64-.34-.36-1.25-1.3-1.64-1.1-.6.31.29,3.17.33,3.29.3.94,1.37,4.33,4.39,6.91.79.67,1.51,1.41,2.3,2.08.91.77,1.59,1.29,1.75,2.19.03.18.15.85-.22,1.21-.59.57-1.97-.07-2.3-.22-.56-.26-.97-.58-2.08-1.64-.84-.81-1.26-1.21-1.86-1.86-2.2-2.37-2.56-3.19-2.85-3.07-.47.19-.37,2.73.99,4.71.67.98,1.51,1.6,3.18,2.85,1.98,1.48,3,1.89,2.96,2.63-.05.77-1.17.76-1.64,1.97-.38.97-.12,2.16.33,2.96.55.98,1.31,1.24,1.21,1.75-.08.41-.67.8-1.21.77-1.54-.08-2.85-3.58-3.4-5.04-.47-1.25-.72-2.27-1.43-2.41-.43-.08-.94.17-1.21.55-.9,1.28,1.01,4.02,1.64,4.93.38.55,1.05,1.49,2.19,2.41.69.55.88.55,2.52,1.64,1.24.82,1.86,1.23,2.41,1.75.44.41,1.22,1.22,1.86,2.41.28.53.48.89.55,1.43.09.7-.12.93-.33,2.08-.25,1.37-.39,2.12,0,2.74.41.66,1.04.62,1.1,1.1.06.56-.74,1.32-1.32,1.21-.65-.13-.48-1.25-1.43-2.85-.35-.6-1.08-1.31-2.52-2.74-1.93-1.91-2.18-1.93-2.3-1.86-.35.19-.17,1.48.33,2.52.89,1.86,2.22,1.73,3.18,3.73.43.9.66,1.86.66,1.86.32,1.36.07,1.69.44,2.08.59.63,1.45.04,2.85.77.42.22.85.44.99.88.24.77-.52,1.92-1.43,2.19-1.45.43-3.16-1.43-4.06-2.41-1-1.09-1.81-2.38-2.3-3.18-.94-1.5-1.36-2.48-2.3-2.63-.04,0-.86-.13-1.21.33-.37.49.1,1.28,1.64,4.39.96,1.94.9,1.89,1.21,2.41.43.74,1.17,2.01,2.41,3.4.41.46.85.95,1.53,1.53,1.24,1.07,2.06,1.39,1.97,1.75-.08.33-.87.52-1.53.44-1.41-.17-2.05-1.51-2.41-1.32-.31.17-.27,1.41.44,2.19.58.64,1.11.45,2.96,1.1,1.05.37,1.93.8,2.74,1.43.69.53,1.27.98,1.21,1.53-.06.56-.77,1.05-1.43,1.1-.74.05-1.4-.49-2.41-1.32-.76-.62-.97-.94-1.32-.88-.46.09-.86.82-.77,1.43.1.62.66.85,1.75,1.64.89.65,1.47,1.2,2.3,1.97,1.69,1.58,1.43,1.81,2.41,2.41.97.59,1.6.6,1.97,1.32.25.49.34,1.22,0,1.53-.56.52-2.06-.29-2.52-.55-.68-.37-.86-.61-2.19-1.64-1.14-.88-1.72-1.32-1.86-1.21-.27.2.24,1.64,1.21,2.74.8.92,1.76,1.41,2.63,1.86,1.58.82,2.12.72,2.63,1.43.54.74.71,1.94.22,2.41-.56.54-1.82.03-3.51-.66-1.34-.54-2.3-1.14-2.74-1.43-.66-.43-1.89-1.25-3.07-2.63-.51-.6-.43-.62-.88-1.1-.82-.87-1.18-.9-2.41-1.97-.7-.62-.77-.78-1.21-.99-.65-.32-1.3-.35-1.75-.33-.47,7.88-.31,16.45.85,25.55.18,1.38.37,2.73.58,4.07-2.16.3-4.6.43-5.05-.56Z"/>
    <path class="cls-5" d="M425.9,334.99c0-1.09,1.17-2.68,1.18-3.78.03-6.22.58-12.41.88-18.36-2.36,3.57-6.58,5.64-8.55,5.04-.77-.23-1.67-.95-1.64-1.64.03-.81,1.28-.98,3.45-2.47,2-1.38,1.7-1.76,3.45-2.8,1.72-1.02,2.46-.92,2.96-1.81.65-1.17.28-3-.49-3.29-.54-.2-1.07.59-3.45,3.12-2.96,3.15-3.74,3.65-4.28,3.95-.49.27-1.75.16-3.62,1.32-2.36,1.45-2.5.64-4.44,1.48-.12.05.2-.71.77-1.15.75-.58.93-.65,1.53-1.97.21-.46.85-1.02,2.14-2.14,1.79-1.55,2.25-1.75,2.8-2.63.58-.93.93-2.12.66-2.3-.28-.19-1.1.82-3.12,2.47-1.83,1.5-2.79,2.26-3.29,1.97-.54-.32-.45-1.85.16-2.96.53-.95,1.18-1.12,2.3-2.14,1.07-.97,1.71-1.62,2.14-2.63.64-1.51,0-2.09.74-3.45.56-1.03,1.43-1.62,1.73-1.81,1.41-.89,2.34-.48,3.04-1.4.44-.58.47-1.27.49-1.73.02-.48.08-1.64-.49-1.97-.38-.22-.89.01-3.12,1.32-2.03,1.18-2.57,1.55-3.04,1.32-.53-.26-.7-1.12-.58-1.73.21-1.05,1.34-1.56,1.73-1.73,1.31-.59,1.94-.04,2.96-.74.22-.15.88-.61.99-1.4.07-.52-.08-1.31-.58-1.56-.72-.37-1.95.49-3.95,1.89-.94.66-1.37,1.04-1.56.9-.26-.19,0-1.29.66-2.06.16-.19.58-.62,3.12-1.56,1.21-.45,1.54-.5,1.81-.9.46-.68.43-1.82-.16-2.3-.11-.09-.49-.36-1.97,0-1.52.37-5.64,2.76-4.28,1.97.02-.78.18-1.82.9-2.55,1.04-1.05,2.26-.47,3.12-1.56.6-.75.18-1.2,1.07-2.8.35-.62.55-.98.99-1.32.77-.59,1.35-.41,1.73-.99.4-.62.11-1.42.08-1.48-.21-.54-.62-.81-.9-.99-.73-.46-1.88-.74-2.96-.41-.63.19-.99.52-1.4.33-.34-.16-.46-.56-.49-.66-.26-.86.41-1.77.82-2.3.51-.66,1.22-1.21,2.63-2.3.43-.33.79-.6,1.32-1.07.3-.27.71-.65,1.15-1.15.85-.95,1.28-1.42,1.23-1.89-.05-.54-.57-1.11-1.15-1.23-.72-.15-1.1.44-2.8,1.23-1.02.47-1.59.73-1.89.49-.41-.33-.22-1.53.41-2.3.52-.64.94-.5,2.22-1.23.61-.35,1.54-.9,2.3-1.89.58-.76.26-.74,1.15-2.22.56-.94.94-1.36.9-2.06-.02-.36-.15-.98-.49-1.07-.34-.09-.67.42-1.97,1.64-.74.69-.93.8-1.07.74-.3-.13-.33-.98-.08-1.64.35-.93,1.2-1.39,1.48-1.56,2.64-1.65,2.94-8.38,3.12-12.66,0,0,.06-1.32.66-3.21.51-1.59.93-2,1.32-2.22.63-.36,1.6-.46,2.22,0,.52.38.66,1.04.66,3.37,0,3.36-.3,3.61-.08,5.1.18,1.18.39,2.64,1.48,3.86.8.9,1.34.85,2.47,2.14.78.89,1.44,1.64,1.23,2.47-.19.76-1.08,1.41-1.81,1.32-.55-.08-.69-.54-1.89-1.81-.84-.89-1.35-1.43-1.56-1.32-.35.19.31,2.21.99,3.7.45.99.51.86,1.48,2.71.64,1.22.95,1.94,1.56,3.37.24.56.55,1.29.66,2.3.03.31.16,1.45-.16,1.56-.33.12-.64-.98-1.89-1.64-.21-.11-.86-.43-1.73-.41-.42,0-1.12.03-1.23.33-.15.4.81,1.09,2.71,2.47.28.2,1.19.85,2.3,1.73,1.17.92,1.4,1.18,1.4,1.48,0,.94-1.67,2.04-2.47,1.64-.77-.39-.24-1.96-1.15-2.47-.58-.32-1.54-.1-1.81.41-.55,1.07,1.92,3.43,2.47,3.95,1.09,1.04,1.49,1.08,2.22,2.06.54.73.44.87,1.32,2.55.56,1.07,1.18,2.14,1.81,3.21.99,1.7,1.22,1.99,1.07,2.22-.33.5-2.12.22-3.12-.82-.25-.26-.23-.33-.66-.99-.6-.92-1.66-2.54-2.14-2.38-.43.14-.37,1.7-.08,2.88.09.39.38,1.43,1.48,3.04,1.43,2.09,2.61,2.76,2.38,3.21-.27.53-2.21.13-2.88,0-1.15-.23-1.73-.55-1.81-.41-.12.2.92,1.33,2.38,1.97,1.34.59,2.06.35,3.04,1.15.13.11,1.1.9.9,1.4-.24.62-2.18.53-3.54.16-1.14-.31-1.67-1.01-1.89-.82-.29.25.46,1.56.74,2.06.38.67.77,1.24,2.88,3.78,1.16,1.41,1.75,2.11,1.97,2.3.65.55,1.11.79,1.07,1.15-.06.5-1.05.98-1.89.82-1.13-.21-1.58-1.51-1.81-1.4-.23.11-.06,1.53.82,2.71.79,1.05,1.6,1.18,1.56,1.73-.04.61-1.1,1.31-1.97,1.15-1.18-.21-1.41-1.86-2.3-1.81-.47.03-.91.52-.99.99-.12.73.63,1.4,1.64,2.22,3.39,2.74,4.06,2.57,5.26,4.03,1.07,1.31,1.51,2.62,1.89,3.78.24.74.69,2.09.33,2.3-.42.25-1.74-1.13-2.55-1.97-.54-.56-.61-.9-1.15-1.32-.27-.21-.91-.69-1.81-.82-1.05-.15-2.54.18-2.71.9-.16.64.76,1.37,1.73,2.14.84.67,1.68,1.13,2.47,1.56,1.48.81,2.08.98,2.3,1.64.14.43.08.94-.16,1.32-.64.99-2.47.88-3.62.41-.95-.39-1.53-1.05-1.97-1.56-1-1.14-.8-1.66-1.81-2.55-.65-.57-.98-.57-1.32-1.15-.33-.57-.17-.84-.49-1.73-.24-.64-.73-1.62-1.07-1.56-.31.06-1.22,1.14-1.26,1.48-.38,3.09.11,18.58.93,22.69"/>
    <path class="cls-5" d="M269.67,335.08c-.69-.87-.13-2.01.16-4.03.41-2.85-.38-2.88-.41-6.91-.02-2.79.36-3.06.58-8.22.14-3.34.04-4.51-.58-4.77-.32-.14-.75,0-2.8,1.64-2.58,2.07-2.44,2.71-4.11,3.62-1.11.6-1.58.57-2.38,1.32-.61.57-.95,1.16-1.56,1.15-.34,0-.72-.19-.89-.51-.29-.52.25-.96.07-1.55-.26-.89-1.79-.84-1.81-1.32-.02-.45,1.35-1.18,2.55-.9.79.18.88.64,1.56.66.86.02,1.53-.69,1.81-.99.8-.85.51-1.29,1.15-2.06.55-.66,1.38-.94,3.04-1.48,1.57-.51,1.87-.4,2.63-.9.31-.21,1.08-.74,1.48-1.73.08-.21.64-1.58,0-2.14-.38-.33-1.09-.29-1.56,0-.8.49-.48,1.42-1.15,2.3-.6.79-1.19.47-3.12,1.23-2.37.93-3.19,2.08-4.19,1.64-.56-.24-.78-.8-.82-.9-.36-.97.35-2.11.99-2.71.65-.62.93-.42,3.29-1.4,1.77-.73,2.24-1.11,2.55-1.4.44-.41.26-.38,1.23-1.48.74-.83,1.06-1.1,1.32-1.73.06-.14.23-.61.25-1.23.02-1.01-.38-2.39-.99-2.47-.39-.05-.63.47-1.73,1.89-.63.81-1.2,1.54-1.81,2.14-1.15,1.12-1.49.81-3.37,2.14-1.74,1.23-2.05,1.92-3.12,1.97-.69.04-1.6-.19-1.81-.74-.25-.66.62-1.53,1.07-1.97,1.2-1.19,1.94-.99,3.29-2.3.41-.4.79-.78,1.07-1.4.42-.93.13-1.32.49-1.89.51-.79,1.3-.39,2.55-1.15.71-.43,1.21-1.17,2.22-2.63,1.02-1.48,1.12-2.03,1.15-2.22.18-1.11-.18-2.35-.58-2.38-.34-.03-.46.83-1.56,2.55-.52.82-.98,1.37-1.4,1.81-.57.6-1,1.04-1.73,1.32-.38.14-1,.37-1.64.16-1.04-.34-1.65-1.65-1.56-2.71.03-.42.43-1.04,1.23-2.3.69-1.08,1.22-1.79,1.48-2.14.67-.88,1-1.32,1.23-1.48,1.14-.81,1.93-.15,3.37-.9.28-.15,1.18-.63,1.64-1.64.38-.82.46-1.95.08-2.14-.34-.17-.77.57-2.06,1.48-.87.62-1.81.99-3.7,1.73-1.68.66-2.13.7-2.55.49-.5-.25-.92-.82-.9-1.4.04-1.16,1.89-1.92,2.63-2.22,1.37-.56,1.86-.32,2.8-.9.64-.4.96-.91,1.64-1.89,1.02-1.48.78-1.71,1.73-2.96.59-.78.9-.98,1.23-1.73.05-.1.71-1.62.25-1.97-.35-.27-1.2.22-1.73.66-1.06.9-.71,1.6-1.64,2.88-.53.73-.48.27-3.12,2.38-.37.3-.79.64-1.4.66-.49.01-1.21-.19-1.4-.66-.18-.46.48-1.27,1.81-2.88.71-.86,1.07-1.29,1.48-1.56.66-.44,1.12-.49,1.23-.9.12-.45-.25-1.07-.74-1.32-.6-.3-1.19.07-1.32-.16-.13-.24.4-.79.74-1.15.61-.63.75-.55.99-.9.43-.65.43-1.65,0-2.3-.11-.17-.19-.22-1.07-.82-1.05-.72-1.57-1.08-1.64-1.32-.23-.77.79-1.71.99-1.89.92-.85,1.52-.59,3.04-1.56.6-.38,1.08-.7,1.48-1.32.14-.23.8-1.25.41-2.22-.07-.16-.27-.68-.66-.74-.44-.07-.69.51-1.64,1.4-.68.64-1.17,1.08-1.89,1.23-.75.16-1.7-.02-1.81-.41-.1-.38.62-.91,2.06-1.97,1.09-.81,1.3-.84,1.48-1.23.45-.96-.33-1.76.08-2.38.41-.61,1.6.21,2.3-.41.49-.43.6-1.37.25-1.73-.55-.54-1.88.59-2.63,0-.47-.37-.55-1.3-.25-1.89.32-.62.88-.55,2.38-1.56.52-.35.78-.52.99-.74.63-.66.71-1.3,1.15-3.04.44-1.74.66-2.61.82-2.96.32-.69.74-1.36.74-2.38,0-.23,0-.82-.25-.9-.27-.09-.69.46-1.4,1.48-1.65,2.39-2.17,3.45-3.45,4.28-.48.31-.9.57-1.23.41-.75-.37-.81-2.84.41-4.11.91-.95,1.77-.42,2.55-1.32.87-1,.17-2.06.66-4.36.38-1.75.86-1.48,1.32-3.21.78-2.97-.59-3.97.49-6.08.29-.57.8-1.18,1.81-2.38.79-.95,1.03-1.12,1.23-1.07.5.14.5,1.68.49,2.63-.03,3.23-.81,3.48-.58,5.34.22,1.78.95,1.63,1.4,4.19.18,1,.16,1.56.58,2.47.36.78.6.86,1.32,2.14.28.5.52.99.99,1.97.53,1.12.8,1.68.99,2.14.45,1.12,1.31,3.27.74,3.7-.45.34-1.7-.46-2.47-1.15-2.03-1.84-2.41-4.48-2.55-4.44-.1.03.34,1.26.49,2.96.2,2.17-.29,2.51.16,3.7.12.33.66,1.04,1.73,2.47.23.31.62.81,1.4,1.81,1.1,1.41,1.2,1.53,1.32,1.64.91.96,1.35,1.06,1.32,1.4-.06.57-1.38,1.16-2.38.82-.42-.14-.72-.51-1.32-1.23-1.86-2.29-2.26-2.79-2.71-2.71-.39.06-.69.53-.74.9-.08.54.35.88,1.07,1.81.64.83.29.56,1.64,2.55.9,1.32,1,1.36,1.15,1.81.39,1.12-.06,1.4.33,2.22.52,1.12,1.49.91,1.89,1.97.33.88-.21,1.34.25,2.06.45.71,1.22.67,1.23,1.07.01.44-.92,1.02-1.64.82-.43-.12-.65-.47-1.15-1.32-.68-1.16-1.02-1.74-1.32-2.3-.84-1.61-1.49-1.14-2.88-2.96-.39-.51-.67-.96-.99-.9-.37.06-.66.78-.66,1.4,0,.49.17,1.01,1.81,2.96,1.05,1.25,1.15,1.25,1.48,1.81.7,1.18.39,1.45.99,2.3.61.87,1.5,1.38,2.38,1.89,1,.58,1.53.69,1.56,1.07.03.43-.58.99-1.23,1.07-.45.05-1.01-.12-3.29-2.38-1.26-1.26-1.54-1.65-1.73-1.56-.37.19-.04,2.28,1.15,3.86.26.35,1.27,1.7,3.04,2.22,1.54.45,2.39-.1,2.96.58.62.74.26,2.17.16,2.55-.27,1.09-.81,1.51-.58,2.06.26.6,1.1.52,1.15.9.07.52-1.42,1.55-2.3,1.15-.9-.41-.43-1.95-1.81-3.54-.27-.31-.84-.96-1.23-.82-.59.22-.5,2.18-.08,3.62.26.89.69,2.36,1.97,3.12.67.4.86.19,2.88.9,1.47.52,1.74.77,1.81,1.07.12.53-.39,1.23-.99,1.4-.37.1-.74,0-1.89-.74-1.53-.98-1.97-1.8-2.3-1.64-.34.16-.37,1.19,0,1.97.39.83.99.89,1.64,2.06.26.46.15.43.41.9.43.79.88,1.15,1.81,2.06,1.66,1.62,1.68,1.88,1.64,2.06-.11.48-.87.85-1.48.74-.61-.11-.66-.62-1.73-1.64-.63-.6-1.21-1-1.56-1.23-.99-.66-1.26-.64-1.81-1.07-.89-.7-.58-1.45-1.48-2.14-.18-.14-.8-.61-1.15-.41-.39.22-.42,1.24,0,1.97.49.87,1.26.7,2.06,1.64.56.66.27.85.82,1.73.75,1.19,1.89,1.83,2.88,2.38,1.2.67,1.43.53,1.97,1.07.84.83,1.43,2.28.9,2.88-.41.46-1.48.42-2.06-.08-.68-.6-.43-1.65-.82-1.73-.3-.06-.76.51-.82,1.07-.06.54.25,1.01.58,1.48.4.6.72.78.66.9-.16.32-2.37-.74-2.63-.33-.15.24.49.76,2.22,2.8,1.13,1.33,1.17,1.48,1.64,1.81.64.44,1.14.57,1.64,1.23.17.23.58.77.41,1.23-.12.32-.41.3-.82.66-.75.64-.53,1.31-.99,1.48-.13.05-.44.11-2.22-1.4-1.03-.88-1.01-.96-1.4-1.15-.91-.44-1.29-.07-2.47-.41-1.24-.36-1.77-1.03-1.89-.9-.17.18.7,1.81,2.3,2.63,1.08.55,1.53.25,2.63.99.41.28,1.13.76,1.48,1.64.24.6.06.76.33,1.48.12.31.43,1.02,1.07,1.56.67.57,1.17.5,1.89.82.32.14,2.29,1.11,2.22,2.3-.02.44-.32.93-.74,1.07-.44.15-.85-.14-2.47-1.32-1.72-1.26-1.82-1.35-2.14-1.4-1.34-.18-1.89,1.2-2.88.9-.48-.14-.97-1.03-1.97-2.8-.49-.87-.72-1.35-1.23-1.48-.48-.12-1.07.1-1.4.49-.5.61-.21,1.42-.08,2.71.08.76-.02.46-.08,3.29-.12,5.84-.19,8.76.08,10.85.4,3.16,1.02,4.46.16,5.26-.9.85-2.92.66-3.7-.33Z"/>
    <path class="cls-5" d="M225.76,334.56c-.11-.36-.4-.74-1.23-.56-.58.13-1.43.06-2.63-.82,1.31-12.44,1.3-17.21.08-18.83-.05-.06.18-.74,0-.83-.31-.14-1.33,1.68-1.56,1.56-.17-.09.16-1.16.49-1.97.36-.86.6-1.12.49-1.23-.21-.23-1.62.28-2.3,1.4-.55.9-.09,1.3-.58,2.22-.54,1.03-1.61,1.48-2.96,2.06-.82.35-.52.1-2.47.74-1.35.44-1.9.69-2.47.41-.34-.17-.77-.57-.74-.99.02-.27.25-.64,3.21-1.81,1.47-.58,1.78-.63,2.38-1.07.18-.13.92-.69,1.56-1.64.35-.53.5-.93.58-1.15.11-.35.42-1.29.08-1.56-.06-.05-.3-.21-1.48.41-1.72.91-2.11,1.75-3.29,1.89-.2.02-.93.11-1.15-.25-.23-.37.27-1.04.66-1.56.68-.93,1.42-1.5,1.73-1.73.93-.69,1.32-.73,2.3-1.56.62-.52.76-.75.82-.99.22-.78-.26-1.81-.9-1.97-.61-.15-1.11.53-1.4.33-.33-.23.27-1.11-.08-1.81-.43-.84-1.8-.59-1.89-.99-.18-.75,4.54-2.28,8.63-5.59.83-.67,1.57-1.36,1.4-1.81-.18-.47-1.35-.65-2.3-.33-1.12.37-1.14,1.17-2.88,2.55-1.32,1.04-1.85,1.01-2.06.99-.95-.13-1.48-1.15-1.56-1.32-.3-.57-.59-1.65-.08-2.22.45-.51,1.03-.07,1.73-.58.67-.48.35-1.05,1.15-2.22.33-.48.78-1.14,1.56-1.4.63-.21.81.06,1.48-.19.72-.26,1.15-.81,1.4-1.13.39-.49.56-.93.74-1.4.21-.53.19-.67.49-1.89.35-1.42.46-1.6.33-1.73-.36-.36-1.94.22-2.47,1.32-.27.57-.01.77-.33,1.4-.22.43-.42.49-1.56,1.48-.9.78-.83.78-1.23,1.07-.94.67-1.61.86-1.81.9-.54.14-1.14.29-1.4,0-.32-.35.07-1.23.41-1.73.6-.89,1.12-.7,1.89-1.64.2-.25.71-.88.9-1.81,0,0,.05-.25.16-1.48,0,0-.04-.81-.41-1.07-.35-.25-.78.19-1.56.16-.26,0-1.01-.02-1.23-.41-.33-.58.65-1.68.99-2.06.7-.79,1.09-.81,2.55-1.81.74-.51,1.61-1.11,2.55-2.06.8-.81,1.19-1.21,1.48-1.89.42-1,.07-1.3.58-2.55.31-.79.57-.96.66-1.64.09-.71-.04-1.59-.33-1.64-.39-.08-1.02,1.35-1.48,2.38-.56,1.28-.68,1.91-1.4,2.55-.57.5-1.02.56-1.15.58-.55.05-1.22-.17-1.56-.66-.35-.5-.07-.85,0-2.63.05-1.27-.08-1.47.16-1.81.4-.55.94-.31,1.97-.9.3-.18,1.02-.6,1.48-1.4.51-.88.5-1.85.49-2.47-.01-1.06-.27-1.4,0-1.73.41-.5,1.2.02,1.89-.41,1.07-.68,1.08-3.18.33-3.54-.4-.19-.98.24-1.64.74-.96.72-1.3,1.32-2.14,2.3-1.29,1.52-2.02,2.37-2.71,2.22-.72-.15-1.27-1.36-1.07-2.3.18-.83.91-1.29,2.38-2.22,1.53-.97,1.72-.74,2.22-1.32.4-.46.57-.94,1.07-3.62.23-1.25.35-1.88.41-2.3.48-3.35,2.11-8.98,2.88-8.88.64.08.73,4.12.74,4.69.04,1.9-.18,2.58.25,3.95.22.73.3.57,1.15,2.55.85,1.97.75,2.05,1.23,2.88.54.92.74.94,1.56,2.3.59.98.82,1.51.9,1.73.37.91.59,1.37.58,1.97-.02.56-.22,1.59-.74,1.73-.7.18-1.76-1.28-2.3-2.47-.73-1.61-.54-2.8-.99-2.88-.38-.07-.94.71-1.07,1.48-.15.88.31,1.62.99,2.71.21.34.61.86,1.4,1.89.53.69.79,1.03,1.15,1.48.54.66.77.92,1.15,1.48.36.53.53.86.66,1.15.07.17.21.51.33.99.14.59.61,2.49.08,2.8-.43.25-1.31-.71-4.44-2.88-.65-.45-1.27-.87-1.56-.66-.38.27.04,1.44.08,1.56.3.85.7,1.1,1.89,2.63.61.78.91,1.18,1.07,1.56.33.82.16,1.15.58,1.81.22.35.53.62,1.15,1.15.72.62.94.66,1.15,1.07.27.52.06.71.33,1.15.29.47.66.44,1.32.9.45.32,1.15.81,1.23,1.48.11.88-.82,1.99-1.73,1.97-.76-.01-1.28-.81-1.73-1.48-.89-1.35-.55-2.04-1.32-2.63-.75-.58-1.23-.03-2.14-.66-.46-.32-.48-.55-1.56-2.14-.61-.9-.92-1.35-.99-1.32-.19.09.54,2.67,2.14,4.93.28.4.61.81,1.07,1.4.77.98,1.39,1.7,1.97,2.38.97,1.13,1.46,1.7,1.89,2.14.91.91,1.16,1.02,1.73,1.73.75.94,1.29,1.61,1.07,2.22-.27.75-1.6,1.12-2.47.74-.54-.24-.65-.66-1.15-1.48-.35-.56-1.98-3.21-3.54-3.04-.49.05-.99.39-1.15.82-.16.43.02.95,1.32,2.63,1.1,1.43,1.65,2.15,2.14,2.55,1.98,1.63,3.25,1.05,4.11,2.47.44.72.07.8.74,2.63.55,1.51.99,1.97.74,2.38-.34.55-1.71.65-2.63.08-1.04-.64-.79-1.69-2.06-2.63-.34-.25-1.07-.8-1.64-.58-.89.36-.89,2.44-.66,3.7.22,1.18.7,1.98,1.4,3.12.82,1.35,1.22,2.02,2.06,2.47.45.24.86.34,1.4.82.18.16.6.57.9,1.23.12.27.58,1.26.25,1.56-.06.05-.28.22-1.48-.33-1.37-.63-2.25-1.03-2.88-1.97-.72-1.07-.34-1.68-1.15-2.38-.43-.37-1.24-.81-1.81-.49-.62.34-.58,1.38-.58,1.48.05.89.61,1.45,1.64,2.55,2.46,2.63,2.01,2.41,2.55,2.8,1.56,1.11,2.24.66,4.19,2.06.38.27,1.08.8,1.56,1.73.22.42.66,1.26.33,1.73-.39.55-1.66.33-2.47,0-1.01-.41-1.05-.9-2.38-1.97-1.51-1.21-1.74-.8-2.71-1.81-1.13-1.17-1.81-2.55-1.81-2.55-.34-.69-.62-.96-.66-1.15-.48-2.29-1.81-.24-1.94,4.35-.43,15.39,1.63,16.56,1.94,18.43.19,1.16-1.25,2.08-1.64.72Z"/>
    <path class="cls-5" d="M183.75,334.12c-.68-.54.04-2.36.44-3.84.45-1.66.3-2.12.33-8.11.01-2.7.06-6.62.22-11.84-1.39,3.41-3.32,5.34-4.39,6.25-1.23,1.06-2.53,1.8-3.4,2.3-.23.13-1.63.93-3.62,1.64-1.2.43-1.82.65-1.97.44-.28-.39,1.18-2.11,2.63-3.29,1.25-1.02,1.58-.91,2.08-1.64,1.03-1.52.72-3.61.66-3.62-.04,0-.2.85-.11.88.12.04.63-1.39.88-2.08.42-1.17.44-1.41.33-1.64-.22-.48-.87-.76-1.43-.77-1.68-.02-2.52,2.44-3.18,2.19-.48-.18-.6-1.71,0-2.85.41-.78.77-.67,1.43-1.53,1.08-1.43.47-2.26,1.43-3.18.78-.76,1.37-.37,2.3-1.32.17-.17.37-.41.99-1.53.55-1.01.85-1.61,1.32-2.63.62-1.36.68-1.66.55-1.97-.18-.43-.71-.83-1.21-.77-1.01.12-.92,2.02-2.19,2.52-.95.38-2.33-.15-2.52-.88-.2-.75.87-1.67,1.64-2.08.89-.48,1.28-.2,1.86-.66.75-.58.72-1.5.99-2.63.57-2.42,2.18-3.38,1.86-3.73-.29-.32-1.7.41-2.41.88-.61.4-.73.61-1.32.99-1.04.67-1.56,1.03-2.08.88-.82-.24-1.39-1.66-.99-2.52.28-.58.81-.48,2.3-1.32,1.21-.68,1.91-1.07,2.3-1.86.36-.73.09-1.04.55-1.97.27-.55.59-.89,1.1-1.43,1.34-1.41,1.88-1.28,2.19-2.08.32-.8-.2-.97.11-2.19.24-.94.64-1.19.55-1.86-.08-.6-.51-1.23-.88-1.21-.43.03-.52.93-1.1,1.97-.48.88-1,1.82-1.97,2.19-.88.34-2.09.19-2.3-.33-.15-.36.28-.7,1.75-2.74.83-1.14,1.01-1.48,1.1-1.64.41-.78.62-1.45.88-2.3.18-.61.39-1.29.55-2.19.37-2.13.22-4.06.22-4.06-.06-.84-.16-1.17,0-1.75.23-.83.63-.87,1.1-1.75.67-1.26.18-1.76.88-2.96.41-.71,1.11-1.45,1.43-1.32.27.12.11.84,0,2.52-.11,1.75-.17,2.62,0,3.51.31,1.65.91,1.62,1.1,3.18.18,1.52-.36,1.78,0,2.85.43,1.29,1.27,1.11,1.75,2.41.51,1.38-.25,2.08.44,3.07.26.38.32.19,1.53,1.21,1.02.85,1.37,1.3,1.53,1.53.44.62.85,1.2.66,1.64-.26.58-1.42.63-2.08.55-1.24-.15-1.86-.87-2.08-.66-.25.23.25,1.29.88,2.08.83,1.05,1.33.92,1.86,1.86.38.67.15.76.66,1.75.34.67.77,1.24.99,1.53.43.58.49.57.77.99.41.61.62,1.14.77,1.53.45,1.17.68,1.75.44,2.08-.35.48-1.45.44-2.19,0-.75-.45-.85-1.13-1.43-2.19-.56-1.03-.63-.71-2.08-2.63-1.08-1.43-1.27-1.87-1.86-1.97-.67-.12-1.51.25-1.64.77-.15.59.76.9,1.86,2.52.52.76.88,1.51,1.21,2.19.68,1.42.57,1.58.99,1.97.67.65,1.22.49,1.97,1.32.35.39.55.77.66.99.54,1.07.23,1.42.66,1.97.57.73,1.37.45,1.64,1.1.21.48-.04,1.09-.33,1.43-.65.76-1.98.75-2.85.33-1.32-.64-1.53-2.18-1.86-2.08-.31.09-.47,1.54.22,2.52.38.55.74.53,1.43,1.32.11.13.32.38.88,1.32.79,1.33.81,1.57,1.43,2.63.83,1.44,1.26,1.82,1.1,2.08-.23.37-1.39.27-2.3-.22-1.76-.95-1.53-2.76-3.18-3.4-.69-.27-1.61-.28-1.86.11-.29.45.35,1.35.88,2.08,1.11,1.55,1.69,1.5,2.63,2.85.69.99.47,1.15,1.32,2.3.63.87.98,1.34,1.64,1.75.7.44,1.18.45,1.32.88.16.49-.21,1.25-.66,1.32-.82.13-1.4-2.17-2.41-2.08-.42.04-.8.46-.88.88-.19,1.08,1.6,2.71,3.4,2.85,1.04.08,1.4-.39,2.52-.11.43.11,1.46.36,1.75,1.21.24.69-.08,1.57-.66,1.97-.96.66-2.57-.07-3.62-.55-1.35-.61-1.61-1.11-2.41-1.1-1,.02-1.05,1.02-2.19,1.32-1.31.34-2.14-.62-2.74-.22-.64.43-.23,1.84,0,3.4.8,5.45-1.36,7.57.44,10.2.64.93,1.53,1.58,1.32,1.97-.2.36-1.03-.02-2.74.11-1.56.12-2.02.52-2.41.22Z"/>
  </g>
</svg>